<?xml version="1.0" encoding="utf-8" standalone="no"?>
<!DOCTYPE svg PUBLIC "-//W3C//DTD SVG 1.1//EN"
  "http://www.w3.org/Graphics/SVG/1.1/DTD/svg11.dtd">
<!-- Created with matplotlib (https://matplotlib.org/) -->
<svg height="307.804962pt" version="1.1" viewBox="0 0 410.645 307.804962" width="410.645pt" xmlns="http://www.w3.org/2000/svg" xmlns:xlink="http://www.w3.org/1999/xlink">
 <defs>
  <style type="text/css">
*{stroke-linecap:butt;stroke-linejoin:round;white-space:pre;}
  </style>
 </defs>
 <g id="figure_1">
  <g id="patch_1">
   <path d="M 0 307.804962 
L 410.645 307.804962 
L 410.645 0 
L 0 0 
z
" style="fill:#ffffff;"/>
  </g>
  <g id="axes_1">
   <g id="patch_2">
    <path d="M 46.325 273.354962 
L 403.445 273.354962 
L 403.445 7.242962 
L 46.325 7.242962 
z
" style="fill:#ffffff;"/>
   </g>
   <g id="matplotlib.axis_1">
    <g id="xtick_1">
     <g id="line2d_1">
      <defs>
       <path d="M 0 0 
L 0 3.5 
" id="m9ab747da3d" style="stroke:#000000;stroke-width:0.8;"/>
      </defs>
      <g>
       <use style="stroke:#000000;stroke-width:0.8;" x="62.557727" xlink:href="#m9ab747da3d" y="273.354962"/>
      </g>
     </g>
     <g id="text_1">
      <!-- 0 -->
      <defs>
       <path d="M 3.125 29.296875 
Q 3.90625 50 6.4375 56.046875 
Q 8.984375 62.109375 13.671875 66.015625 
Q 18.359375 69.921875 25.1875 69.921875 
Q 32.03125 69.921875 37.109375 64.25 
Q 42.1875 58.59375 43.75 50 
Q 45.3125 41.40625 44.71875 30.265625 
Q 44.140625 19.140625 40.8125 12.109375 
Q 37.5 5.078125 30.859375 2.34375 
Q 24.21875 -0.390625 17.578125 2.921875 
Q 10.9375 6.25 8.203125 11.71875 
Q 5.46875 17.1875 4.296875 23.234375 
Q 3.125 29.296875 3.90625 50 
z
M 12.890625 52.734375 
Q 10.546875 31.25 12.5 22.84375 
Q 14.453125 14.453125 18.9375 10.9375 
Q 23.4375 7.421875 28.125 9.5625 
Q 32.8125 11.71875 34.953125 18.15625 
Q 37.109375 24.609375 37.109375 32.21875 
Q 37.109375 39.84375 36.515625 46.09375 
Q 35.9375 52.34375 33 57.421875 
Q 30.078125 62.5 25.1875 62.6875 
Q 20.3125 62.890625 16.59375 57.8125 
Q 12.890625 52.734375 10.546875 31.25 
z
" id="SimHei-48"/>
      </defs>
      <g transform="translate(60.057727 287.229962)scale(0.1 -0.1)">
       <use xlink:href="#SimHei-48"/>
      </g>
     </g>
    </g>
    <g id="xtick_2">
     <g id="line2d_2">
      <g>
       <use style="stroke:#000000;stroke-width:0.8;" x="103.159847" xlink:href="#m9ab747da3d" y="273.354962"/>
      </g>
     </g>
     <g id="text_2">
      <!-- 250 -->
      <defs>
       <path d="M 4.6875 3.90625 
Q 5.078125 9.765625 10.15625 14.453125 
Q 15.234375 19.140625 23.046875 29.09375 
Q 30.859375 39.0625 33.203125 44.53125 
Q 35.546875 50 34.953125 53.90625 
Q 34.375 57.8125 31.25 60.34375 
Q 28.125 62.890625 24.015625 62.5 
Q 19.921875 62.109375 16.203125 59.375 
Q 12.5 56.640625 10.546875 51.171875 
L 3.125 52.34375 
Q 6.25 61.328125 11.125 65.421875 
Q 16.015625 69.53125 22.65625 69.921875 
Q 26.5625 70.3125 29.6875 69.71875 
Q 32.8125 69.140625 36.125 66.984375 
Q 39.453125 64.84375 41.59375 60.546875 
Q 43.75 56.25 43.15625 50.1875 
Q 42.578125 44.140625 37.109375 35.734375 
Q 31.640625 27.34375 16.015625 9.375 
L 44.140625 9.375 
L 44.140625 2.34375 
L 4.6875 2.34375 
z
" id="SimHei-50"/>
       <path d="M 8.59375 20.703125 
Q 11.328125 10.15625 17.96875 8.984375 
Q 24.609375 7.8125 28.703125 10.34375 
Q 32.8125 12.890625 34.5625 16.984375 
Q 36.328125 21.09375 36.125 26.171875 
Q 35.9375 31.25 33.390625 34.765625 
Q 30.859375 38.28125 26.953125 39.453125 
Q 23.046875 40.625 18.15625 39.453125 
Q 13.28125 38.28125 10.15625 33.984375 
L 3.515625 34.765625 
Q 4.296875 37.109375 10.9375 68.359375 
L 41.796875 68.359375 
L 41.796875 61.328125 
L 16.796875 61.328125 
Q 14.84375 50.78125 12.890625 44.53125 
Q 18.75 47.265625 23.828125 47.0625 
Q 28.90625 46.875 33.59375 44.71875 
Q 38.28125 42.578125 40.421875 38.859375 
Q 42.578125 35.15625 43.546875 31.4375 
Q 44.53125 27.734375 44.328125 23.4375 
Q 44.140625 19.140625 42.578125 14.640625 
Q 41.015625 10.15625 37.890625 7.21875 
Q 34.765625 4.296875 30.265625 2.53125 
Q 25.78125 0.78125 19.921875 1.171875 
Q 14.0625 1.5625 8.78125 5.46875 
Q 3.515625 9.375 1.5625 18.75 
z
" id="SimHei-53"/>
      </defs>
      <g transform="translate(95.659847 287.229962)scale(0.1 -0.1)">
       <use xlink:href="#SimHei-50"/>
       <use x="50" xlink:href="#SimHei-53"/>
       <use x="100" xlink:href="#SimHei-48"/>
      </g>
     </g>
    </g>
    <g id="xtick_3">
     <g id="line2d_3">
      <g>
       <use style="stroke:#000000;stroke-width:0.8;" x="143.761966" xlink:href="#m9ab747da3d" y="273.354962"/>
      </g>
     </g>
     <g id="text_3">
      <!-- 500 -->
      <g transform="translate(136.261966 287.229962)scale(0.1 -0.1)">
       <use xlink:href="#SimHei-53"/>
       <use x="50" xlink:href="#SimHei-48"/>
       <use x="100" xlink:href="#SimHei-48"/>
      </g>
     </g>
    </g>
    <g id="xtick_4">
     <g id="line2d_4">
      <g>
       <use style="stroke:#000000;stroke-width:0.8;" x="184.364085" xlink:href="#m9ab747da3d" y="273.354962"/>
      </g>
     </g>
     <g id="text_4">
      <!-- 750 -->
      <defs>
       <path d="M 13.28125 2.34375 
Q 20.3125 32.03125 37.890625 61.328125 
L 4.296875 61.328125 
L 4.296875 68.359375 
L 46.09375 68.359375 
L 46.09375 61.71875 
Q 27.734375 32.03125 21.875 2.34375 
L 13.28125 2.34375 
z
" id="SimHei-55"/>
      </defs>
      <g transform="translate(176.864085 287.229962)scale(0.1 -0.1)">
       <use xlink:href="#SimHei-55"/>
       <use x="50" xlink:href="#SimHei-53"/>
       <use x="100" xlink:href="#SimHei-48"/>
      </g>
     </g>
    </g>
    <g id="xtick_5">
     <g id="line2d_5">
      <g>
       <use style="stroke:#000000;stroke-width:0.8;" x="224.966204" xlink:href="#m9ab747da3d" y="273.354962"/>
      </g>
     </g>
     <g id="text_5">
      <!-- 1000 -->
      <defs>
       <path d="M 21.875 56.25 
Q 16.796875 51.171875 8.984375 46.484375 
L 8.984375 53.90625 
Q 18.75 60.546875 25 69.53125 
L 29.6875 69.53125 
L 29.6875 2.34375 
L 21.875 2.34375 
z
" id="SimHei-49"/>
      </defs>
      <g transform="translate(214.966204 287.229962)scale(0.1 -0.1)">
       <use xlink:href="#SimHei-49"/>
       <use x="50" xlink:href="#SimHei-48"/>
       <use x="100" xlink:href="#SimHei-48"/>
       <use x="150" xlink:href="#SimHei-48"/>
      </g>
     </g>
    </g>
    <g id="xtick_6">
     <g id="line2d_6">
      <g>
       <use style="stroke:#000000;stroke-width:0.8;" x="265.568323" xlink:href="#m9ab747da3d" y="273.354962"/>
      </g>
     </g>
     <g id="text_6">
      <!-- 1250 -->
      <g transform="translate(255.568323 287.229962)scale(0.1 -0.1)">
       <use xlink:href="#SimHei-49"/>
       <use x="50" xlink:href="#SimHei-50"/>
       <use x="100" xlink:href="#SimHei-53"/>
       <use x="150" xlink:href="#SimHei-48"/>
      </g>
     </g>
    </g>
    <g id="xtick_7">
     <g id="line2d_7">
      <g>
       <use style="stroke:#000000;stroke-width:0.8;" x="306.170443" xlink:href="#m9ab747da3d" y="273.354962"/>
      </g>
     </g>
     <g id="text_7">
      <!-- 1500 -->
      <g transform="translate(296.170443 287.229962)scale(0.1 -0.1)">
       <use xlink:href="#SimHei-49"/>
       <use x="50" xlink:href="#SimHei-53"/>
       <use x="100" xlink:href="#SimHei-48"/>
       <use x="150" xlink:href="#SimHei-48"/>
      </g>
     </g>
    </g>
    <g id="xtick_8">
     <g id="line2d_8">
      <g>
       <use style="stroke:#000000;stroke-width:0.8;" x="346.772562" xlink:href="#m9ab747da3d" y="273.354962"/>
      </g>
     </g>
     <g id="text_8">
      <!-- 1750 -->
      <g transform="translate(336.772562 287.229962)scale(0.1 -0.1)">
       <use xlink:href="#SimHei-49"/>
       <use x="50" xlink:href="#SimHei-55"/>
       <use x="100" xlink:href="#SimHei-53"/>
       <use x="150" xlink:href="#SimHei-48"/>
      </g>
     </g>
    </g>
    <g id="xtick_9">
     <g id="line2d_9">
      <g>
       <use style="stroke:#000000;stroke-width:0.8;" x="387.374681" xlink:href="#m9ab747da3d" y="273.354962"/>
      </g>
     </g>
     <g id="text_9">
      <!-- 2000 -->
      <g transform="translate(377.374681 287.229962)scale(0.1 -0.1)">
       <use xlink:href="#SimHei-50"/>
       <use x="50" xlink:href="#SimHei-48"/>
       <use x="100" xlink:href="#SimHei-48"/>
       <use x="150" xlink:href="#SimHei-48"/>
      </g>
     </g>
    </g>
    <g id="text_10">
     <!-- Number of Generation -->
     <defs>
      <path d="M 44.53125 1.953125 
L 34.765625 1.953125 
L 13.28125 50.390625 
L 12.890625 50.390625 
L 12.890625 1.953125 
L 3.90625 1.953125 
L 3.90625 68.75 
L 13.671875 68.75 
L 35.15625 20.3125 
L 35.546875 20.3125 
L 35.546875 68.75 
L 44.53125 68.75 
z
" id="SimHei-78"/>
      <path d="M 43.75 1.953125 
L 35.9375 1.953125 
L 35.9375 10.15625 
Q 32.8125 5.859375 29.09375 3.515625 
Q 25.390625 1.171875 19.53125 1.171875 
Q 12.5 1.171875 8.984375 5.078125 
Q 5.46875 8.984375 5.46875 14.84375 
L 5.46875 45.703125 
L 13.28125 45.703125 
L 13.28125 17.578125 
Q 13.28125 12.890625 15.625 10.15625 
Q 17.96875 7.421875 21.875 7.421875 
Q 26.953125 7.421875 31.4375 12.6875 
Q 35.9375 17.96875 35.9375 25.78125 
L 35.9375 45.703125 
L 43.75 45.703125 
z
" id="SimHei-117"/>
      <path d="M 47.65625 1.953125 
L 39.84375 1.953125 
L 39.84375 33.59375 
Q 39.84375 35.9375 39.0625 37.5 
Q 38.28125 39.0625 35.9375 39.0625 
Q 33.203125 39.0625 30.859375 36.125 
Q 28.515625 33.203125 28.515625 28.515625 
L 28.515625 1.953125 
L 20.703125 1.953125 
L 20.703125 33.59375 
Q 20.703125 35.9375 19.921875 37.5 
Q 19.140625 39.0625 16.796875 39.0625 
Q 14.0625 39.0625 11.71875 36.125 
Q 9.375 33.203125 9.375 28.515625 
L 9.375 1.953125 
L 1.5625 1.953125 
L 1.5625 45.703125 
L 9.375 45.703125 
L 9.375 39.84375 
Q 11.328125 42.96875 14.0625 44.71875 
Q 16.796875 46.484375 19.921875 46.484375 
Q 23.046875 46.484375 25.1875 44.71875 
Q 27.34375 42.96875 28.125 39.84375 
Q 30.078125 42.96875 32.609375 44.71875 
Q 35.15625 46.484375 38.28125 46.484375 
Q 42.96875 46.484375 45.3125 43.9375 
Q 47.65625 41.40625 47.65625 36.71875 
z
" id="SimHei-109"/>
      <path d="M 44.140625 23.828125 
Q 44.140625 12.5 38.671875 6.828125 
Q 33.203125 1.171875 25.390625 1.171875 
Q 21.09375 1.171875 17.96875 2.734375 
Q 14.84375 4.296875 12.5 7.8125 
L 12.5 1.953125 
L 4.6875 1.953125 
L 4.6875 68.75 
L 12.5 68.75 
L 12.5 39.84375 
Q 14.84375 43.359375 17.96875 45.109375 
Q 21.09375 46.875 25.390625 46.875 
Q 33.203125 46.875 38.671875 41.015625 
Q 44.140625 35.15625 44.140625 23.828125 
z
M 35.546875 23.828125 
Q 35.546875 31.25 32.609375 35.546875 
Q 29.6875 39.84375 23.828125 39.84375 
Q 19.140625 39.84375 15.8125 35.546875 
Q 12.5 31.25 12.5 23.828125 
Q 12.5 16.40625 15.8125 12.296875 
Q 19.140625 8.203125 23.828125 8.203125 
Q 29.6875 8.203125 32.609375 12.296875 
Q 35.546875 16.40625 35.546875 23.828125 
z
" id="SimHei-98"/>
      <path d="M 44.53125 16.796875 
Q 43.75 9.765625 38.28125 5.46875 
Q 32.8125 1.171875 25.390625 1.171875 
Q 16.015625 1.171875 9.953125 7.21875 
Q 3.90625 13.28125 3.90625 23.828125 
Q 3.90625 34.375 9.953125 40.421875 
Q 16.015625 46.484375 25.390625 46.484375 
Q 33.59375 46.484375 38.859375 41.203125 
Q 44.140625 35.9375 44.140625 23.828125 
L 12.5 23.828125 
Q 12.5 15.234375 16.203125 11.71875 
Q 19.921875 8.203125 25.390625 8.203125 
Q 29.6875 8.203125 32.421875 10.34375 
Q 35.15625 12.5 35.9375 16.796875 
z
M 35.15625 30.078125 
Q 34.375 35.546875 31.640625 37.6875 
Q 28.90625 39.84375 24.609375 39.84375 
Q 20.703125 39.84375 17.578125 37.6875 
Q 14.453125 35.546875 12.890625 30.078125 
z
" id="SimHei-101"/>
      <path d="M 39.0625 37.890625 
Q 31.640625 39.0625 26.5625 35.734375 
Q 21.484375 32.421875 17.96875 24.21875 
L 17.96875 1.953125 
L 10.15625 1.953125 
L 10.15625 45.703125 
L 17.96875 45.703125 
L 17.96875 34.375 
Q 21.484375 40.625 26.75 43.546875 
Q 32.03125 46.484375 39.0625 46.484375 
z
" id="SimHei-114"/>
      <path id="SimHei-32"/>
      <path d="M 45.703125 23.828125 
Q 45.703125 13.671875 39.453125 7.421875 
Q 33.203125 1.171875 24.609375 1.171875 
Q 16.015625 1.171875 9.765625 7.421875 
Q 3.515625 13.671875 3.515625 23.828125 
Q 3.515625 33.984375 9.765625 40.234375 
Q 16.015625 46.484375 24.609375 46.484375 
Q 33.203125 46.484375 39.453125 40.234375 
Q 45.703125 33.984375 45.703125 23.828125 
z
M 37.109375 23.828125 
Q 37.109375 31.640625 33.203125 35.546875 
Q 29.296875 39.453125 24.609375 39.453125 
Q 19.921875 39.453125 16.015625 35.546875 
Q 12.109375 31.640625 12.109375 23.828125 
Q 12.109375 16.015625 16.015625 12.109375 
Q 19.921875 8.203125 24.609375 8.203125 
Q 29.296875 8.203125 33.203125 12.109375 
Q 37.109375 16.015625 37.109375 23.828125 
z
" id="SimHei-111"/>
      <path d="M 44.53125 59.765625 
Q 42.578125 60.9375 39.84375 61.71875 
Q 37.109375 62.5 32.8125 62.5 
Q 28.515625 62.5 26.953125 60.34375 
Q 25.390625 58.203125 25.390625 55.078125 
L 25.390625 45.703125 
L 41.40625 45.703125 
L 41.40625 39.453125 
L 25.390625 39.453125 
L 25.390625 1.953125 
L 17.578125 1.953125 
L 17.578125 39.453125 
L 4.296875 39.453125 
L 4.296875 45.703125 
L 17.578125 45.703125 
L 17.578125 54.6875 
Q 17.578125 61.71875 21.875 65.625 
Q 26.171875 69.53125 33.203125 69.53125 
Q 37.5 69.53125 40.03125 68.9375 
Q 42.578125 68.359375 44.53125 67.578125 
z
" id="SimHei-102"/>
      <path d="M 44.53125 1.171875 
L 37.890625 1.171875 
L 36.71875 6.640625 
Q 35.15625 4.296875 31.828125 2.734375 
Q 28.515625 1.171875 24.609375 1.171875 
Q 16.40625 1.171875 9.953125 8.78125 
Q 3.515625 16.40625 3.515625 33.203125 
Q 3.515625 51.5625 9.375 60.546875 
Q 15.234375 69.53125 25.390625 69.53125 
Q 34.375 69.53125 39.453125 62.890625 
Q 44.53125 56.25 44.53125 45.703125 
L 35.9375 45.703125 
Q 35.9375 53.90625 33.203125 58 
Q 30.46875 62.109375 25.390625 62.109375 
Q 19.140625 62.109375 16.015625 55.65625 
Q 12.890625 49.21875 12.890625 33.984375 
Q 12.890625 19.53125 16.796875 14.0625 
Q 20.703125 8.59375 25.78125 8.59375 
Q 30.859375 8.59375 33.78125 12.296875 
Q 36.71875 16.015625 36.71875 23.828125 
L 36.71875 28.125 
L 24.609375 28.125 
L 24.609375 35.546875 
L 44.53125 35.546875 
z
" id="SimHei-71"/>
      <path d="M 43.75 1.953125 
L 35.9375 1.953125 
L 35.9375 30.078125 
Q 35.9375 34.765625 33.59375 37.5 
Q 31.25 40.234375 27.34375 40.234375 
Q 22.265625 40.234375 17.765625 34.953125 
Q 13.28125 29.6875 13.28125 21.875 
L 13.28125 1.953125 
L 5.46875 1.953125 
L 5.46875 45.703125 
L 13.28125 45.703125 
L 13.28125 37.5 
Q 16.40625 41.796875 20.109375 44.140625 
Q 23.828125 46.484375 29.6875 46.484375 
Q 36.71875 46.484375 40.234375 42.578125 
Q 43.75 38.671875 43.75 32.8125 
z
" id="SimHei-110"/>
      <path d="M 44.921875 1.953125 
L 35.546875 1.953125 
Q 34.765625 2.734375 34.375 4.09375 
Q 33.984375 5.46875 33.984375 7.421875 
Q 31.25 4.296875 27.34375 2.734375 
Q 23.4375 1.171875 19.140625 1.171875 
Q 12.890625 1.171875 8.59375 4.296875 
Q 4.296875 7.421875 4.296875 13.28125 
Q 4.296875 19.140625 8.203125 22.65625 
Q 12.109375 26.171875 20.3125 27.34375 
Q 25.78125 28.125 29.875 29.296875 
Q 33.984375 30.46875 33.984375 32.421875 
Q 33.984375 34.765625 32.21875 37.109375 
Q 30.46875 39.453125 24.609375 39.453125 
Q 19.921875 39.453125 17.765625 37.6875 
Q 15.625 35.9375 14.84375 32.8125 
L 6.25 32.8125 
Q 7.03125 39.0625 11.90625 42.765625 
Q 16.796875 46.484375 24.609375 46.484375 
Q 33.203125 46.484375 37.5 42.578125 
Q 41.796875 38.671875 41.796875 31.640625 
L 41.796875 10.15625 
Q 41.796875 7.8125 42.578125 5.859375 
Q 43.359375 3.90625 44.921875 1.953125 
z
M 33.984375 16.40625 
L 33.984375 24.21875 
Q 31.640625 23.4375 29.484375 22.84375 
Q 27.34375 22.265625 22.265625 21.484375 
Q 16.40625 20.703125 14.640625 18.75 
Q 12.890625 16.796875 12.890625 14.0625 
Q 12.890625 11.71875 14.640625 9.953125 
Q 16.40625 8.203125 19.921875 8.203125 
Q 23.4375 8.203125 27.53125 10.15625 
Q 31.640625 12.109375 33.984375 16.40625 
z
" id="SimHei-97"/>
      <path d="M 42.96875 3.125 
Q 41.015625 2.34375 38.46875 1.75 
Q 35.9375 1.171875 31.640625 1.171875 
Q 24.609375 1.171875 20.3125 5.078125 
Q 16.015625 8.984375 16.015625 16.015625 
L 16.015625 39.453125 
L 2.734375 39.453125 
L 2.734375 45.703125 
L 16.015625 45.703125 
L 16.015625 60.9375 
L 23.828125 60.9375 
L 23.828125 45.703125 
L 39.84375 45.703125 
L 39.84375 39.453125 
L 23.828125 39.453125 
L 23.828125 15.625 
Q 23.828125 12.5 25.390625 10.34375 
Q 26.953125 8.203125 31.25 8.203125 
Q 35.546875 8.203125 38.28125 8.984375 
Q 41.015625 9.765625 42.96875 10.9375 
z
" id="SimHei-116"/>
      <path d="M 28.125 58.203125 
L 20.3125 58.203125 
L 20.3125 68.359375 
L 28.125 68.359375 
z
M 28.125 1.953125 
L 20.3125 1.953125 
L 20.3125 45.703125 
L 28.125 45.703125 
z
" id="SimHei-105"/>
     </defs>
     <g transform="translate(174.885 299.354962)scale(0.1 -0.1)">
      <use xlink:href="#SimHei-78"/>
      <use x="50" xlink:href="#SimHei-117"/>
      <use x="100" xlink:href="#SimHei-109"/>
      <use x="150" xlink:href="#SimHei-98"/>
      <use x="200" xlink:href="#SimHei-101"/>
      <use x="250" xlink:href="#SimHei-114"/>
      <use x="300" xlink:href="#SimHei-32"/>
      <use x="350" xlink:href="#SimHei-111"/>
      <use x="400" xlink:href="#SimHei-102"/>
      <use x="450" xlink:href="#SimHei-32"/>
      <use x="500" xlink:href="#SimHei-71"/>
      <use x="550" xlink:href="#SimHei-101"/>
      <use x="600" xlink:href="#SimHei-110"/>
      <use x="650" xlink:href="#SimHei-101"/>
      <use x="700" xlink:href="#SimHei-114"/>
      <use x="750" xlink:href="#SimHei-97"/>
      <use x="800" xlink:href="#SimHei-116"/>
      <use x="850" xlink:href="#SimHei-105"/>
      <use x="900" xlink:href="#SimHei-111"/>
      <use x="950" xlink:href="#SimHei-110"/>
     </g>
    </g>
   </g>
   <g id="matplotlib.axis_2">
    <g id="ytick_1">
     <g id="line2d_10">
      <defs>
       <path d="M 0 0 
L -3.5 0 
" id="m1c0d1609fb" style="stroke:#000000;stroke-width:0.8;"/>
      </defs>
      <g>
       <use style="stroke:#000000;stroke-width:0.8;" x="46.325" xlink:href="#m1c0d1609fb" y="240.756658"/>
      </g>
     </g>
     <g id="text_11">
      <!-- 0 -->
      <g transform="translate(34.325 244.194158)scale(0.1 -0.1)">
       <use xlink:href="#SimHei-48"/>
      </g>
     </g>
    </g>
    <g id="ytick_2">
     <g id="line2d_11">
      <g>
       <use style="stroke:#000000;stroke-width:0.8;" x="46.325" xlink:href="#m1c0d1609fb" y="183.226869"/>
      </g>
     </g>
     <g id="text_12">
      <!-- 500 -->
      <g transform="translate(24.325 186.664369)scale(0.1 -0.1)">
       <use xlink:href="#SimHei-53"/>
       <use x="50" xlink:href="#SimHei-48"/>
       <use x="100" xlink:href="#SimHei-48"/>
      </g>
     </g>
    </g>
    <g id="ytick_3">
     <g id="line2d_12">
      <g>
       <use style="stroke:#000000;stroke-width:0.8;" x="46.325" xlink:href="#m1c0d1609fb" y="125.697079"/>
      </g>
     </g>
     <g id="text_13">
      <!-- 1000 -->
      <g transform="translate(19.325 129.134579)scale(0.1 -0.1)">
       <use xlink:href="#SimHei-49"/>
       <use x="50" xlink:href="#SimHei-48"/>
       <use x="100" xlink:href="#SimHei-48"/>
       <use x="150" xlink:href="#SimHei-48"/>
      </g>
     </g>
    </g>
    <g id="ytick_4">
     <g id="line2d_13">
      <g>
       <use style="stroke:#000000;stroke-width:0.8;" x="46.325" xlink:href="#m1c0d1609fb" y="68.16729"/>
      </g>
     </g>
     <g id="text_14">
      <!-- 1500 -->
      <g transform="translate(19.325 71.60479)scale(0.1 -0.1)">
       <use xlink:href="#SimHei-49"/>
       <use x="50" xlink:href="#SimHei-53"/>
       <use x="100" xlink:href="#SimHei-48"/>
       <use x="150" xlink:href="#SimHei-48"/>
      </g>
     </g>
    </g>
    <g id="ytick_5">
     <g id="line2d_14">
      <g>
       <use style="stroke:#000000;stroke-width:0.8;" x="46.325" xlink:href="#m1c0d1609fb" y="10.6375"/>
      </g>
     </g>
     <g id="text_15">
      <!-- 2000 -->
      <g transform="translate(19.325 14.075)scale(0.1 -0.1)">
       <use xlink:href="#SimHei-50"/>
       <use x="50" xlink:href="#SimHei-48"/>
       <use x="100" xlink:href="#SimHei-48"/>
       <use x="150" xlink:href="#SimHei-48"/>
      </g>
     </g>
    </g>
    <g id="text_16">
     <!-- Value -->
     <defs>
      <path d="M 47.65625 68.75 
L 28.125 1.171875 
L 20.3125 1.171875 
L 0.78125 68.75 
L 10.15625 68.75 
L 23.828125 17.578125 
L 24.609375 17.578125 
L 38.28125 68.75 
z
" id="SimHei-86"/>
      <path d="M 28.515625 1.953125 
L 20.703125 1.953125 
L 20.703125 68.75 
L 28.515625 68.75 
z
" id="SimHei-108"/>
     </defs>
     <g transform="translate(14.075 152.798962)rotate(-90)scale(0.1 -0.1)">
      <use xlink:href="#SimHei-86"/>
      <use x="50" xlink:href="#SimHei-97"/>
      <use x="100" xlink:href="#SimHei-108"/>
      <use x="150" xlink:href="#SimHei-117"/>
      <use x="200" xlink:href="#SimHei-101"/>
     </g>
    </g>
   </g>
   <g id="line2d_15">
    <path clip-path="url(#paaa25cd34a)" d="M 62.557727 261.258962 
L 62.882544 174.627561 
L 63.207361 145.064607 
L 63.532178 95.681902 
L 63.856995 86.240698 
L 64.019404 84.237231 
L 64.181812 72.018442 
L 64.344221 100.411883 
L 64.669037 74.163509 
L 64.831446 86.17996 
L 64.993854 89.612949 
L 65.156263 88.68457 
L 65.48108 83.659119 
L 65.643488 65.529099 
L 65.805897 69.391793 
L 65.968305 77.007784 
L 66.130714 70.737343 
L 66.293122 78.451924 
L 66.455531 72.932355 
L 66.780348 87.780784 
L 66.942756 84.492201 
L 67.105165 85.13102 
L 67.267573 58.81032 
L 67.429982 77.446565 
L 67.59239 72.013412 
L 67.754799 78.398558 
L 67.917207 72.752856 
L 68.079615 84.114033 
L 68.242024 78.97893 
L 68.404432 84.531576 
L 68.566841 85.454245 
L 68.729249 87.138032 
L 68.891658 76.832187 
L 69.054066 89.428339 
L 69.378883 68.374352 
L 69.541292 86.892189 
L 69.7037 89.837936 
L 69.866109 88.041397 
L 70.190926 63.463836 
L 70.353334 87.37533 
L 70.515743 75.444827 
L 70.678151 79.232143 
L 70.84056 67.501945 
L 71.002968 86.169371 
L 71.165377 79.296293 
L 71.327785 63.135916 
L 71.490194 68.161575 
L 71.652602 67.713774 
L 71.81501 71.756559 
L 71.977419 92.105074 
L 72.139827 74.390614 
L 72.302236 83.766122 
L 72.464644 79.036957 
L 72.789461 91.976412 
L 72.95187 74.878393 
L 73.114278 80.247087 
L 73.276687 92.201942 
L 73.439095 81.827671 
L 73.601504 90.100294 
L 73.763912 75.883051 
L 73.926321 82.296123 
L 74.251138 71.607051 
L 74.413546 87.323722 
L 74.575955 61.354012 
L 74.738363 74.881477 
L 74.900772 74.331406 
L 75.06318 79.360801 
L 75.387997 95.068846 
L 75.550405 89.344816 
L 75.712814 94.004171 
L 75.875222 76.217189 
L 76.037631 86.532948 
L 76.200039 72.502918 
L 76.524856 84.245367 
L 76.687265 78.050537 
L 76.849673 90.031672 
L 77.012082 77.603857 
L 77.336899 100.668533 
L 77.499307 71.298825 
L 77.824124 84.350796 
L 77.986533 85.007913 
L 78.31135 91.640204 
L 78.473758 78.887365 
L 78.636166 79.019244 
L 78.798575 78.009996 
L 78.960983 72.208146 
L 79.2858 82.586074 
L 79.448209 69.799999 
L 79.610617 83.483007 
L 79.935434 72.813948 
L 80.097843 93.695878 
L 80.260251 77.03141 
L 80.42266 85.29239 
L 80.585068 57.637833 
L 80.747477 80.251125 
L 80.909885 72.784079 
L 81.072294 86.206844 
L 81.234702 89.439753 
L 81.397111 75.304778 
L 81.559519 81.089887 
L 81.721928 65.849333 
L 81.884336 74.462773 
L 82.046745 69.602023 
L 82.209153 90.12123 
L 82.371561 92.31913 
L 82.53397 86.226977 
L 82.696378 89.26126 
L 82.858787 82.392557 
L 83.021195 104.761831 
L 83.183604 84.274168 
L 83.346012 84.274429 
L 83.508421 81.785651 
L 83.670829 71.623474 
L 83.833238 70.735902 
L 83.995646 76.260676 
L 84.158055 74.300981 
L 84.320463 87.863375 
L 84.482872 79.022378 
L 84.64528 78.254989 
L 84.807689 60.61119 
L 84.970097 69.591428 
L 85.132506 90.284055 
L 85.294914 70.430279 
L 85.619731 84.145669 
L 85.782139 77.965398 
L 85.944548 78.365056 
L 86.106956 72.729526 
L 86.269365 63.174538 
L 86.594182 84.270522 
L 86.75659 84.662064 
L 87.081407 75.680585 
L 87.243816 79.809527 
L 87.406224 75.14894 
L 87.568633 73.925134 
L 87.731041 74.487773 
L 87.89345 79.19467 
L 88.055858 98.847485 
L 88.218267 94.140054 
L 88.380675 85.067059 
L 88.543084 84.035913 
L 88.867901 93.645672 
L 89.030309 79.422076 
L 89.192717 91.413062 
L 89.355126 77.757627 
L 89.517534 81.020704 
L 89.842351 67.641754 
L 90.00476 70.273392 
L 90.167168 70.681822 
L 90.329577 85.144091 
L 90.491985 68.846375 
L 90.654394 71.512454 
L 90.816802 81.610135 
L 90.979211 65.505384 
L 91.141619 86.424985 
L 91.304028 78.07712 
L 91.466436 79.648183 
L 91.628845 73.43097 
L 91.791253 74.656505 
L 91.953662 69.028291 
L 92.11607 70.161278 
L 92.278479 86.492974 
L 92.440887 88.02024 
L 92.603296 73.277472 
L 92.928112 87.393629 
L 93.252929 79.980802 
L 93.415338 84.111483 
L 93.577746 84.82412 
L 93.740155 70.145863 
L 93.902563 71.001396 
L 94.22738 84.555224 
L 94.389789 84.562724 
L 94.552197 85.654445 
L 94.714606 59.517264 
L 94.877014 79.818962 
L 95.039423 76.040144 
L 95.201831 85.169307 
L 95.36424 84.426915 
L 95.526648 70.039705 
L 95.851465 84.747584 
L 96.013874 82.924902 
L 96.176282 69.987521 
L 96.33869 95.155876 
L 96.501099 80.490763 
L 96.663507 92.079971 
L 96.825916 95.124831 
L 96.988324 88.596699 
L 97.150733 89.125678 
L 97.313141 74.577076 
L 97.47555 74.617307 
L 97.637958 90.895706 
L 97.800367 77.752747 
L 97.962775 84.252159 
L 98.125184 99.982062 
L 98.287592 80.374054 
L 98.450001 79.400977 
L 98.612409 81.674423 
L 98.774818 78.865545 
L 98.937226 84.251587 
L 99.099635 81.064722 
L 99.262043 91.637244 
L 99.424452 63.033969 
L 99.749268 81.58803 
L 99.911677 69.164814 
L 100.074085 92.490419 
L 100.236494 85.523235 
L 100.398902 73.035391 
L 100.561311 85.540979 
L 101.048536 68.402804 
L 101.210945 75.477084 
L 101.535762 62.818089 
L 101.69817 67.137398 
L 102.022987 96.358303 
L 102.185396 89.712177 
L 102.347804 89.094107 
L 102.672621 65.67076 
L 102.83503 79.04058 
L 102.997438 69.22732 
L 103.159847 70.91992 
L 103.484663 86.464348 
L 103.971889 64.832466 
L 104.134297 78.576441 
L 104.296706 80.531396 
L 104.459114 79.534105 
L 104.94634 64.606365 
L 105.108748 67.113492 
L 105.595974 98.359095 
L 105.920791 78.300753 
L 106.083199 75.796597 
L 106.245608 86.934231 
L 106.408016 73.519056 
L 106.570425 72.00177 
L 106.732833 57.273824 
L 106.895241 82.097511 
L 107.05765 75.049719 
L 107.220058 82.419575 
L 107.382467 74.99805 
L 107.544875 75.448298 
L 107.707284 84.188002 
L 107.869692 80.461156 
L 108.032101 82.434094 
L 108.194509 71.115466 
L 108.356918 71.849169 
L 108.519326 64.902682 
L 108.844143 98.822445 
L 109.006552 76.511918 
L 109.331369 77.858618 
L 109.493777 77.593097 
L 109.656186 80.392487 
L 109.818594 91.432482 
L 109.981003 77.171581 
L 110.143411 82.254206 
L 110.30582 71.718579 
L 110.468228 87.259327 
L 110.630636 79.398509 
L 110.793045 86.153549 
L 110.955453 64.873359 
L 111.117862 81.920226 
L 111.442679 74.691833 
L 111.605087 84.552249 
L 111.767496 86.971702 
L 111.929904 68.697466 
L 112.092313 80.32057 
L 112.254721 74.791649 
L 112.41713 78.199739 
L 112.579538 76.606834 
L 112.741947 70.43908 
L 112.904355 72.581689 
L 113.066764 89.73434 
L 113.229172 71.458293 
L 113.391581 69.58702 
L 113.553989 65.999661 
L 113.716398 73.668618 
L 113.878806 73.53747 
L 114.041214 75.454684 
L 114.203623 71.307631 
L 114.366031 75.304914 
L 114.52844 85.309801 
L 114.690848 84.685537 
L 114.853257 86.632575 
L 115.178074 69.970737 
L 115.340482 96.863343 
L 115.502891 95.037701 
L 115.665299 77.853921 
L 115.827708 79.227143 
L 115.990116 86.612757 
L 116.152525 99.925092 
L 116.314933 77.882384 
L 116.63975 70.448961 
L 116.802159 72.273964 
L 116.964567 67.231329 
L 117.126976 89.27667 
L 117.289384 85.451086 
L 117.451792 78.175837 
L 117.614201 57.175926 
L 117.939018 85.158062 
L 118.101426 78.792433 
L 118.263835 86.535983 
L 118.588652 63.80482 
L 118.75106 78.748696 
L 118.913469 76.629836 
L 119.075877 63.172267 
L 119.238286 84.933412 
L 119.400694 75.377958 
L 119.563103 88.173865 
L 119.725511 73.928129 
L 119.88792 76.98564 
L 120.050328 61.480726 
L 120.212737 76.528266 
L 120.375145 76.507956 
L 120.537554 79.416096 
L 120.699962 69.397036 
L 120.862371 81.216741 
L 121.024779 73.755174 
L 121.349596 80.93086 
L 121.674413 87.733833 
L 121.836821 78.567887 
L 121.99923 90.64181 
L 122.161638 80.143648 
L 122.324047 86.404113 
L 122.486455 77.232612 
L 122.811272 94.65617 
L 122.973681 76.171071 
L 123.136089 81.573483 
L 123.298498 70.764742 
L 123.460906 75.977643 
L 123.623315 73.02757 
L 123.785723 73.814215 
L 123.948132 85.152825 
L 124.11054 84.780883 
L 124.272949 82.216419 
L 124.435357 95.685242 
L 124.597765 88.716862 
L 124.760174 89.402934 
L 124.922582 78.868799 
L 125.084991 76.713876 
L 125.247399 80.281854 
L 125.409808 90.835816 
L 125.572216 73.553489 
L 125.734625 76.497749 
L 125.897033 77.34862 
L 126.059442 82.907143 
L 126.22185 68.800746 
L 126.384259 90.816651 
L 126.546667 87.45994 
L 126.709076 67.147845 
L 127.033893 74.791746 
L 127.196301 63.560243 
L 127.35871 70.295217 
L 127.521118 87.332889 
L 127.683527 77.884737 
L 128.170752 88.768844 
L 128.33316 83.276959 
L 128.495569 82.824593 
L 128.657977 67.45867 
L 128.820386 77.857987 
L 128.982794 76.030982 
L 129.145203 70.155195 
L 129.307611 79.815211 
L 129.47002 64.689642 
L 129.794837 82.690684 
L 129.957245 84.098773 
L 130.282062 69.631746 
L 130.444471 75.796614 
L 130.606879 106.078431 
L 130.769288 90.539082 
L 130.931696 89.428762 
L 131.094105 77.458929 
L 131.256513 84.69237 
L 131.418922 73.503203 
L 131.58133 89.926861 
L 131.743738 92.195579 
L 131.906147 87.114502 
L 132.068555 75.177914 
L 132.393372 85.509608 
L 132.555781 70.077867 
L 132.718189 83.290861 
L 132.880598 72.383373 
L 133.043006 83.828642 
L 133.205415 64.828903 
L 133.530232 75.8772 
L 133.69264 79.06736 
L 133.855049 86.056484 
L 134.179866 80.851052 
L 134.342274 75.806223 
L 134.504683 91.514231 
L 134.667091 72.57702 
L 134.8295 73.701979 
L 134.991908 88.618153 
L 135.154316 88.923323 
L 135.316725 95.643747 
L 135.641542 73.996057 
L 135.80395 91.169973 
L 135.966359 67.310892 
L 136.128767 60.194737 
L 136.291176 60.361467 
L 136.453584 62.650889 
L 136.615993 93.229257 
L 136.94081 63.062766 
L 137.265627 91.167963 
L 137.428035 80.317761 
L 137.590444 85.32884 
L 137.752852 77.868879 
L 138.077669 74.474866 
L 138.240078 75.016658 
L 138.402486 80.195891 
L 138.564894 75.834951 
L 138.727303 84.811735 
L 138.889711 74.996156 
L 139.214528 85.159703 
L 139.539345 80.590461 
L 139.701754 81.27171 
L 139.864162 84.756733 
L 140.188979 81.607017 
L 140.351388 69.370112 
L 140.513796 92.45294 
L 140.676205 86.182303 
L 140.838613 88.283356 
L 141.16343 70.36915 
L 141.325839 73.92757 
L 141.488247 71.536226 
L 141.650656 86.846846 
L 141.813064 90.812648 
L 142.137881 81.459124 
L 142.300289 84.307514 
L 142.462698 63.016812 
L 142.625106 82.023883 
L 142.787515 76.769429 
L 142.949923 81.100404 
L 143.112332 59.216621 
L 143.27474 75.568433 
L 143.437149 68.821177 
L 144.086783 92.681224 
L 144.249191 72.37915 
L 144.4116 80.316448 
L 144.574008 77.10663 
L 144.898825 81.019701 
L 145.061234 71.913451 
L 145.223642 77.620464 
L 145.386051 67.75247 
L 145.548459 78.349674 
L 145.873276 74.07655 
L 146.035684 73.117482 
L 146.198093 73.37047 
L 146.360501 77.01366 
L 146.52291 87.173683 
L 146.685318 70.082426 
L 146.847727 70.816104 
L 147.010135 93.133909 
L 147.334952 89.071171 
L 147.497361 100.709003 
L 147.822178 84.477686 
L 147.984586 89.785104 
L 148.146995 78.056262 
L 148.309403 88.591705 
L 148.471812 75.411677 
L 148.63422 93.013057 
L 148.796629 78.99669 
L 148.959037 85.285928 
L 149.283854 69.518102 
L 149.446262 71.757726 
L 149.608671 70.945405 
L 149.771079 78.837567 
L 149.933488 72.414221 
L 150.095896 78.414739 
L 150.420713 61.661429 
L 150.583122 75.097844 
L 150.74553 75.304404 
L 150.907939 82.730752 
L 151.070347 79.140906 
L 151.232756 93.150347 
L 151.395164 90.410339 
L 151.719981 77.646442 
L 151.88239 79.018247 
L 152.044798 84.325619 
L 152.369615 76.834154 
L 152.532024 74.736182 
L 152.85684 95.654966 
L 153.019249 90.392511 
L 153.181657 76.872641 
L 153.344066 73.413722 
L 153.506474 82.377248 
L 153.668883 74.322093 
L 153.831291 85.665757 
L 153.9937 83.618827 
L 154.156108 75.446563 
L 154.318517 77.243734 
L 154.480925 75.396577 
L 154.643334 75.140284 
L 154.805742 85.431907 
L 155.130559 75.500339 
L 155.292968 74.868935 
L 155.455376 67.756817 
L 155.617785 77.0494 
L 155.780193 93.016673 
L 155.942602 70.709969 
L 156.10501 85.384561 
L 156.267418 81.448185 
L 156.429827 68.395511 
L 156.592235 84.622517 
L 156.754644 73.395843 
L 156.917052 74.746868 
L 157.079461 62.777972 
L 157.241869 79.134194 
L 157.404278 66.045597 
L 157.566686 65.006413 
L 158.053912 83.317107 
L 158.21632 77.419819 
L 158.378729 78.723221 
L 158.541137 90.725055 
L 158.703546 74.642196 
L 159.028363 72.846447 
L 159.190771 70.946932 
L 159.35318 74.698811 
L 159.515588 75.834981 
L 159.840405 69.444956 
L 160.165222 85.981607 
L 160.490039 66.590942 
L 160.652447 79.260832 
L 160.814856 78.074433 
L 161.139673 86.844121 
L 161.302081 64.621865 
L 161.46449 77.091221 
L 161.789307 82.406601 
L 161.951715 75.727248 
L 162.114124 82.640609 
L 162.276532 83.301184 
L 162.438941 91.109694 
L 162.926166 71.456065 
L 163.088575 62.827603 
L 163.250983 68.950247 
L 163.413391 89.429606 
L 163.5758 84.840788 
L 163.738208 96.162041 
L 163.900617 84.013214 
L 164.063025 80.438627 
L 164.225434 90.533539 
L 164.387842 74.95787 
L 164.550251 78.761751 
L 164.712659 74.817728 
L 164.875068 64.523548 
L 165.037476 78.315165 
L 165.199885 81.190746 
L 165.362293 69.694966 
L 165.524702 83.413021 
L 165.68711 86.915407 
L 165.849519 73.562327 
L 166.011927 70.460938 
L 166.336744 80.880219 
L 166.661561 71.063315 
L 166.823969 81.54579 
L 166.986378 64.184544 
L 167.148786 101.737093 
L 167.473603 82.712883 
L 167.636012 84.75649 
L 167.79842 76.525786 
L 167.960829 78.916171 
L 168.285646 72.895787 
L 168.448054 81.461363 
L 168.610463 70.356192 
L 168.772871 72.848705 
L 168.93528 68.114849 
L 169.097688 70.904776 
L 169.260097 57.55899 
L 169.422505 85.992373 
L 169.584914 88.090818 
L 169.909731 79.226712 
L 170.396956 87.957639 
L 170.559364 76.908069 
L 170.721773 89.478122 
L 170.884181 82.453428 
L 171.04659 91.641085 
L 171.371407 79.206411 
L 171.533815 81.323602 
L 171.696224 77.608155 
L 171.858632 86.113332 
L 172.021041 83.668835 
L 172.183449 78.008394 
L 172.508266 92.750135 
L 172.670675 91.163048 
L 172.833083 80.343487 
L 172.995492 79.662496 
L 173.1579 89.27224 
L 173.320309 87.954324 
L 173.482717 88.879057 
L 173.645126 71.690888 
L 173.807534 77.940755 
L 173.969942 68.642511 
L 174.294759 79.445182 
L 174.457168 65.997525 
L 174.781985 81.172062 
L 174.944393 72.612394 
L 175.106802 74.597353 
L 175.26921 90.809127 
L 175.431619 70.576891 
L 175.594027 74.537343 
L 175.756436 70.706465 
L 175.918844 79.431079 
L 176.081253 79.092954 
L 176.243661 82.33008 
L 176.40607 67.564029 
L 176.568478 86.068748 
L 176.730887 75.172816 
L 177.218112 95.727629 
L 177.38052 84.591932 
L 177.867746 92.371059 
L 178.030154 66.456167 
L 178.192563 69.342823 
L 178.354971 79.162924 
L 178.51738 101.659627 
L 178.679788 92.829309 
L 178.842197 90.341195 
L 179.004605 75.188771 
L 179.329422 82.91509 
L 179.491831 84.903812 
L 179.654239 72.079557 
L 179.816648 84.075893 
L 179.979056 84.54506 
L 180.141465 75.773751 
L 180.466282 83.167063 
L 180.62869 75.945153 
L 180.791099 75.569678 
L 180.953507 65.585776 
L 181.115915 67.308425 
L 181.278324 78.460321 
L 181.440732 79.221498 
L 181.765549 93.289703 
L 182.090366 70.857097 
L 182.252775 77.154171 
L 182.415183 70.208815 
L 182.577592 69.580224 
L 182.74 84.931438 
L 182.902409 77.342338 
L 183.064817 89.009032 
L 183.227226 77.134004 
L 183.389634 87.662057 
L 183.552043 71.407487 
L 183.714451 90.344673 
L 183.87686 70.461111 
L 184.039268 84.669778 
L 184.526493 55.828366 
L 184.688902 80.084546 
L 185.013719 60.833778 
L 185.338536 82.124174 
L 185.500944 77.226152 
L 185.663353 98.004942 
L 185.825761 82.754285 
L 185.98817 84.311802 
L 186.312987 62.421725 
L 186.475395 86.609994 
L 186.637804 74.444804 
L 186.800212 78.500476 
L 186.962621 69.920709 
L 187.287438 84.791669 
L 187.449846 73.8125 
L 187.774663 86.714135 
L 188.09948 74.721991 
L 188.261888 70.126258 
L 188.424297 70.156269 
L 188.586705 75.583152 
L 188.749114 70.35887 
L 188.911522 72.750597 
L 189.073931 80.58699 
L 189.236339 76.985672 
L 189.398748 91.500967 
L 189.561156 89.099943 
L 189.723565 62.636587 
L 189.885973 89.63541 
L 190.048382 92.928846 
L 190.21079 79.726003 
L 190.373199 90.982688 
L 190.535607 74.02663 
L 190.698016 79.680398 
L 190.860424 98.518128 
L 191.022833 78.074687 
L 191.185241 85.428722 
L 191.510058 66.680711 
L 191.672466 81.104048 
L 191.834875 78.724452 
L 191.997283 80.282274 
L 192.159692 95.67414 
L 192.646917 81.469324 
L 192.809326 83.22048 
L 192.971734 72.893059 
L 193.134143 92.921403 
L 193.296551 80.614252 
L 193.45896 82.333019 
L 193.621368 78.970203 
L 193.783777 71.943187 
L 193.946185 94.071654 
L 194.108594 78.636845 
L 194.271002 75.338837 
L 194.433411 60.676009 
L 194.595819 83.036364 
L 194.920636 72.437795 
L 195.083044 80.628546 
L 195.245453 72.763401 
L 195.407861 98.788575 
L 195.57027 79.63758 
L 195.732678 77.301481 
L 195.895087 83.66013 
L 196.057495 80.907693 
L 196.219904 73.419201 
L 196.382312 74.829953 
L 196.544721 78.143686 
L 196.707129 85.106704 
L 196.869538 84.699839 
L 197.031946 81.461493 
L 197.194355 75.146788 
L 197.356763 85.474112 
L 197.68158 72.92843 
L 197.843989 80.699475 
L 198.006397 63.733755 
L 198.493622 91.982148 
L 198.656031 82.181642 
L 198.818439 82.906948 
L 199.305665 65.730212 
L 199.468073 68.06852 
L 199.630482 83.406169 
L 199.79289 79.469774 
L 199.955299 89.988115 
L 200.280116 83.749072 
L 200.442524 88.939239 
L 200.604933 87.075158 
L 200.767341 82.446548 
L 200.92975 89.96447 
L 201.092158 75.28525 
L 201.416975 86.784866 
L 201.579384 86.901495 
L 201.904201 67.707571 
L 202.066609 69.909985 
L 202.391426 92.470018 
L 202.553834 91.774765 
L 202.716243 81.212868 
L 203.04106 77.098222 
L 203.203468 65.757888 
L 203.365877 86.628883 
L 203.528285 79.540154 
L 203.853102 90.406623 
L 204.015511 87.438139 
L 204.177919 81.46874 
L 204.340328 70.991708 
L 204.502736 78.490988 
L 204.665145 78.323617 
L 205.314779 96.088178 
L 205.477187 90.283366 
L 205.639595 77.235651 
L 205.802004 77.291824 
L 205.964412 76.538829 
L 206.126821 67.902084 
L 206.289229 84.009675 
L 206.776455 69.670539 
L 206.938863 81.564881 
L 207.101272 77.556061 
L 207.26368 69.894333 
L 207.426089 78.415624 
L 207.588497 68.036349 
L 207.913314 95.028861 
L 208.075723 86.972414 
L 208.238131 92.574537 
L 208.562948 77.745705 
L 208.725357 85.788959 
L 208.887765 75.349171 
L 209.050173 85.859364 
L 209.212582 86.213951 
L 209.37499 71.006915 
L 209.537399 78.069492 
L 209.699807 79.584177 
L 209.862216 74.756209 
L 210.024624 83.652909 
L 210.187033 80.131807 
L 210.51185 80.178112 
L 210.674258 79.650538 
L 210.836667 74.27733 
L 210.999075 75.236257 
L 211.161484 78.243338 
L 211.323892 85.997522 
L 211.486301 101.916743 
L 211.648709 79.563483 
L 211.973526 96.546097 
L 212.135935 77.262544 
L 212.298343 86.395474 
L 212.460752 61.056613 
L 212.785568 92.727889 
L 212.947977 82.432423 
L 213.110385 81.77137 
L 213.272794 87.526342 
L 213.435202 86.299857 
L 213.597611 83.100047 
L 213.760019 86.438336 
L 214.247245 71.123471 
L 214.572062 90.009997 
L 214.896879 72.438846 
L 215.059287 86.031282 
L 215.221696 70.257625 
L 215.384104 76.251373 
L 215.546513 63.481464 
L 215.708921 66.563045 
L 216.033738 64.797724 
L 216.196146 67.672543 
L 216.358555 85.291202 
L 216.683372 71.89522 
L 216.84578 91.460658 
L 217.008189 82.873758 
L 217.333006 85.658063 
L 217.495414 68.770787 
L 217.657823 80.09984 
L 217.820231 70.136518 
L 218.145048 81.662743 
L 218.307457 78.658573 
L 218.469865 80.355188 
L 218.632274 70.876517 
L 218.794682 73.760292 
L 218.957091 70.36755 
L 219.119499 76.15981 
L 219.281908 100.831941 
L 219.769133 68.96361 
L 219.931541 85.456104 
L 220.09395 69.511652 
L 220.256358 86.893238 
L 220.418767 64.33416 
L 220.581175 79.661453 
L 220.743584 62.807758 
L 220.905992 67.601066 
L 221.068401 61.560987 
L 221.230809 75.565707 
L 221.393218 99.184114 
L 221.555626 75.74831 
L 221.718035 70.20777 
L 221.880443 80.451781 
L 222.20526 71.515362 
L 222.367669 74.266379 
L 222.530077 79.983379 
L 222.692486 61.966705 
L 223.179711 90.285584 
L 223.504528 69.61187 
L 223.666936 71.85513 
L 223.829345 80.201579 
L 223.991753 82.089987 
L 224.154162 78.224048 
L 224.31657 82.464965 
L 224.478979 70.362584 
L 224.803796 82.672923 
L 224.966204 62.458989 
L 225.128613 65.63205 
L 225.291021 75.099159 
L 225.45343 66.248715 
L 225.615838 77.336332 
L 226.103064 60.852972 
L 226.265472 81.077643 
L 226.427881 72.2889 
L 226.590289 90.828622 
L 226.915106 60.136956 
L 227.077514 66.330223 
L 227.402331 82.099385 
L 227.56474 79.753342 
L 227.727148 98.445938 
L 227.889557 70.539721 
L 228.051965 69.927882 
L 228.214374 81.828669 
L 228.376782 74.09486 
L 228.539191 78.202196 
L 228.701599 97.449542 
L 228.864008 95.349935 
L 229.026416 75.414839 
L 229.188825 76.661082 
L 229.351233 80.716037 
L 229.67605 72.99016 
L 229.838459 79.6193 
L 230.000867 97.109701 
L 230.163276 85.234734 
L 230.325684 82.118441 
L 230.488092 63.881364 
L 230.812909 87.767837 
L 230.975318 89.338546 
L 231.137726 82.51652 
L 231.300135 70.818761 
L 231.462543 84.033122 
L 231.624952 84.020274 
L 231.78736 70.502787 
L 232.112177 93.055466 
L 232.436994 76.442351 
L 232.599403 79.979205 
L 232.761811 80.665061 
L 232.92422 66.151809 
L 233.086628 90.591913 
L 233.411445 65.120141 
L 233.573854 81.640754 
L 233.736262 85.429043 
L 233.89867 75.396935 
L 234.061079 73.741963 
L 234.385896 83.586946 
L 234.710713 72.273591 
L 234.873121 71.679936 
L 235.03553 85.933928 
L 235.360347 72.10959 
L 235.522755 82.658539 
L 235.685164 76.364673 
L 235.847572 85.711731 
L 236.009981 85.93988 
L 236.172389 66.577945 
L 236.334798 79.344467 
L 236.497206 68.834258 
L 236.659615 68.154918 
L 236.822023 68.532719 
L 236.984432 82.121078 
L 237.14684 68.932242 
L 237.309248 72.417959 
L 237.471657 70.555376 
L 237.634065 91.168849 
L 237.796474 87.860155 
L 238.121291 66.538841 
L 238.446108 81.713196 
L 238.608516 66.199922 
L 238.770925 71.816174 
L 238.933333 86.440738 
L 239.095742 61.807488 
L 239.25815 65.020117 
L 239.582967 79.145311 
L 239.745376 84.219482 
L 239.907784 97.567629 
L 240.070193 89.969601 
L 240.39501 67.534788 
L 240.557418 72.625141 
L 240.719827 60.244885 
L 240.882235 57.725973 
L 241.044643 79.432377 
L 241.207052 80.959014 
L 241.531869 68.66644 
L 241.694277 69.808377 
L 241.856686 72.357646 
L 242.181503 85.592647 
L 242.343911 80.829177 
L 242.50632 71.671604 
L 242.668728 73.333129 
L 242.831137 67.762761 
L 242.993545 101.452235 
L 243.155954 78.286385 
L 243.318362 83.233317 
L 243.480771 84.300666 
L 243.643179 81.226835 
L 243.805588 69.512876 
L 243.967996 85.28894 
L 244.130405 84.121915 
L 244.292813 73.845851 
L 244.455221 70.808314 
L 244.61763 77.835371 
L 244.780038 92.091651 
L 244.942447 61.306581 
L 245.267264 75.287328 
L 245.429672 79.761103 
L 245.592081 58.719208 
L 245.754489 78.224543 
L 246.079306 73.367504 
L 246.241715 78.802118 
L 246.404123 89.070977 
L 246.566532 84.543045 
L 246.72894 84.268757 
L 247.053757 69.904243 
L 247.216166 75.220494 
L 247.378574 72.711934 
L 247.540983 74.340505 
L 247.703391 90.40919 
L 247.865799 69.82076 
L 248.028208 66.786679 
L 248.353025 94.555273 
L 248.515433 84.865363 
L 248.677842 64.811894 
L 248.84025 64.715165 
L 249.002659 67.272954 
L 249.327476 88.368496 
L 249.814701 78.610897 
L 249.97711 75.08995 
L 250.139518 69.087419 
L 250.301927 87.481028 
L 250.464335 86.16195 
L 250.626744 77.416601 
L 250.789152 88.550004 
L 250.951561 82.190611 
L 251.113969 88.825822 
L 251.276378 90.870737 
L 251.438786 75.741125 
L 251.601194 75.953194 
L 251.763603 84.736076 
L 251.926011 74.330262 
L 252.08842 73.794573 
L 252.250828 84.714857 
L 252.413237 84.493098 
L 252.575645 64.957044 
L 252.738054 80.039785 
L 252.900462 82.628238 
L 253.062871 66.74554 
L 253.225279 64.783791 
L 253.387688 54.39508 
L 253.550096 80.311246 
L 253.712505 80.294841 
L 253.874913 78.253925 
L 254.037322 74.773353 
L 254.19973 91.409013 
L 254.362139 69.396934 
L 254.524547 69.54101 
L 254.849364 95.057417 
L 255.011772 70.556554 
L 255.174181 71.622146 
L 255.336589 81.663 
L 255.498998 83.53679 
L 255.661406 91.064541 
L 255.823815 78.772379 
L 255.986223 85.370005 
L 256.148632 82.229667 
L 256.473449 68.42641 
L 256.635857 84.710222 
L 256.798266 67.120156 
L 256.960674 68.486784 
L 257.123083 82.81684 
L 257.285491 75.649196 
L 257.4479 86.645237 
L 257.610308 78.416446 
L 257.772717 93.156636 
L 258.097534 61.387363 
L 258.259942 63.200929 
L 258.42235 93.398566 
L 258.747167 76.796398 
L 258.909576 87.59742 
L 259.071984 66.271878 
L 259.234393 77.070238 
L 259.55921 69.601914 
L 259.884027 83.186296 
L 260.046435 82.124691 
L 260.208844 84.728323 
L 260.371252 66.932967 
L 260.533661 77.88735 
L 260.696069 80.781355 
L 260.858478 88.239546 
L 261.020886 85.956884 
L 261.345703 67.495813 
L 261.67052 89.319024 
L 261.832929 91.367505 
L 261.995337 81.053007 
L 262.320154 76.099771 
L 262.482562 80.630158 
L 262.644971 78.390135 
L 262.807379 85.865961 
L 263.457013 79.949132 
L 263.619422 66.208333 
L 263.78183 81.097135 
L 264.106647 77.357113 
L 264.269056 91.369859 
L 264.431464 94.514573 
L 264.593873 83.924951 
L 264.756281 81.408575 
L 264.91869 83.702986 
L 265.081098 79.234792 
L 265.405915 63.144533 
L 265.568323 82.629882 
L 265.730732 86.124268 
L 266.055549 80.761971 
L 266.217957 78.456649 
L 266.380366 78.744254 
L 266.705183 70.885284 
L 267.03 78.216836 
L 267.192408 77.337854 
L 267.354817 77.678244 
L 267.517225 80.970206 
L 267.679634 81.709084 
L 267.842042 78.467119 
L 268.004451 69.622643 
L 268.329268 85.235958 
L 268.491676 83.070184 
L 268.654085 67.326815 
L 268.816493 79.157251 
L 268.978901 76.182186 
L 269.14131 77.691102 
L 269.303718 100.954978 
L 269.466127 95.722565 
L 269.628535 95.632854 
L 269.790944 114.59219 
L 269.953352 73.780936 
L 270.115761 62.871471 
L 270.278169 69.575307 
L 270.440578 81.271625 
L 270.602986 78.732871 
L 270.765395 81.368496 
L 270.927803 74.313561 
L 271.090212 77.083472 
L 271.25262 89.618222 
L 271.415029 68.175015 
L 271.577437 84.781972 
L 271.739846 78.215065 
L 271.902254 88.388343 
L 272.064663 64.77714 
L 272.227071 88.752208 
L 272.38948 82.796409 
L 272.551888 91.055673 
L 272.714296 71.442272 
L 272.876705 73.198163 
L 273.039113 70.085331 
L 273.201522 77.053442 
L 273.526339 80.898558 
L 273.688747 70.258773 
L 273.851156 76.136837 
L 274.175973 68.006466 
L 274.338381 71.712926 
L 274.50079 70.13739 
L 274.663198 69.803197 
L 274.825607 75.635286 
L 274.988015 85.512645 
L 275.150424 82.276365 
L 275.312832 82.659199 
L 275.475241 87.184494 
L 275.637649 86.170106 
L 275.800058 83.411113 
L 275.962466 93.894084 
L 276.287283 71.188205 
L 276.6121 74.728235 
L 276.774508 87.889322 
L 276.936917 88.617787 
L 277.099325 69.278883 
L 277.261734 82.56952 
L 277.424142 72.755743 
L 277.586551 88.085431 
L 277.748959 87.478091 
L 277.911368 92.44857 
L 278.236185 65.433052 
L 278.398593 89.403216 
L 278.561002 85.663345 
L 278.72341 79.354337 
L 278.885819 64.131096 
L 279.210636 69.58352 
L 279.373044 73.911645 
L 279.535452 92.10922 
L 279.697861 78.284763 
L 279.860269 82.860523 
L 280.185086 70.06495 
L 280.347495 61.38266 
L 280.83472 95.812895 
L 281.159537 81.094614 
L 281.321946 88.805811 
L 281.484354 68.354079 
L 281.646763 74.759073 
L 281.809171 67.381794 
L 281.97158 70.517959 
L 282.133988 83.626699 
L 282.296397 83.615772 
L 282.458805 83.904364 
L 282.621214 84.782231 
L 282.783622 88.272929 
L 282.946031 78.033239 
L 283.270847 91.380707 
L 283.433256 82.857492 
L 283.595664 84.850131 
L 283.758073 75.259977 
L 283.920481 75.094326 
L 284.08289 79.016713 
L 284.245298 71.428951 
L 284.407707 85.76603 
L 284.570115 88.722691 
L 284.732524 75.530998 
L 284.894932 77.948295 
L 285.057341 70.639962 
L 285.219749 75.505906 
L 285.382158 68.044108 
L 285.544566 71.856517 
L 285.706975 64.748289 
L 285.869383 79.668237 
L 286.031792 73.638456 
L 286.1942 84.713911 
L 286.519017 80.736979 
L 286.681425 72.421134 
L 286.843834 94.17259 
L 287.006242 88.14249 
L 287.168651 96.316025 
L 287.331059 95.610943 
L 287.493468 91.832916 
L 287.655876 64.546289 
L 287.818285 82.818243 
L 287.980693 83.520971 
L 288.143102 95.690512 
L 288.30551 99.388365 
L 288.630327 74.57313 
L 288.792736 72.31882 
L 288.955144 88.730111 
L 289.117553 84.477218 
L 289.279961 74.402889 
L 289.44237 71.785998 
L 289.604778 77.56285 
L 289.929595 61.019054 
L 290.254412 86.42855 
L 290.41682 77.539771 
L 290.741637 85.228774 
L 290.904046 85.306426 
L 291.066454 61.171511 
L 291.55368 92.151627 
L 291.878497 61.727671 
L 292.040905 62.686833 
L 292.203314 80.950569 
L 292.365722 81.884596 
L 292.528131 55.87575 
L 292.690539 79.68837 
L 292.852948 85.534586 
L 293.177765 71.197732 
L 293.340173 77.21002 
L 293.502582 70.551785 
L 293.66499 90.834522 
L 293.827398 71.205836 
L 293.989807 76.166759 
L 294.152215 73.93679 
L 294.477032 81.515113 
L 294.639441 85.36751 
L 294.801849 85.818388 
L 295.126666 84.261079 
L 295.289075 95.420896 
L 295.613892 77.874444 
L 295.7763 97.06279 
L 295.938709 78.029683 
L 296.101117 81.724004 
L 296.263526 71.411408 
L 296.425934 81.884224 
L 296.588343 82.80166 
L 296.750751 77.624174 
L 296.91316 66.002206 
L 297.075568 80.018909 
L 297.237976 72.444159 
L 297.400385 76.932255 
L 297.562793 65.50074 
L 297.725202 93.413048 
L 298.050019 71.742329 
L 298.374836 79.342886 
L 298.537244 69.680306 
L 298.699653 70.286887 
L 298.862061 77.622202 
L 299.186878 100.125731 
L 299.511695 73.174242 
L 299.674104 73.552863 
L 299.836512 66.2007 
L 299.998921 86.566144 
L 300.161329 75.02605 
L 300.323738 85.464784 
L 300.486146 82.779009 
L 300.648555 68.959522 
L 300.810963 78.469394 
L 300.973371 63.873621 
L 301.13578 75.801079 
L 301.298188 79.505255 
L 301.460597 76.435273 
L 301.785414 78.682944 
L 301.947822 72.697462 
L 302.110231 81.815783 
L 302.272639 75.594428 
L 302.435048 81.94845 
L 302.759865 68.454244 
L 302.922273 67.607803 
L 303.084682 68.201598 
L 303.24709 79.419886 
L 303.409499 72.9823 
L 303.571907 75.636816 
L 303.734316 84.434677 
L 303.896724 69.356151 
L 304.059133 90.258276 
L 304.383949 84.996576 
L 304.546358 87.376356 
L 304.708766 87.019082 
L 304.871175 64.233073 
L 305.033583 77.694573 
L 305.195992 76.76431 
L 305.3584 92.720534 
L 305.520809 84.525244 
L 305.683217 89.995043 
L 305.845626 80.155382 
L 306.008034 88.443838 
L 306.170443 84.935169 
L 306.332851 86.928865 
L 306.49526 82.529184 
L 306.820077 64.389096 
L 306.982485 84.806204 
L 307.144894 81.558894 
L 307.307302 91.460313 
L 307.632119 76.321163 
L 307.794527 61.994021 
L 307.956936 74.817208 
L 308.119344 77.010911 
L 308.281753 76.092717 
L 308.444161 101.032615 
L 308.768978 76.282505 
L 308.931387 77.279439 
L 309.093795 74.044122 
L 309.256204 81.726629 
L 309.418612 68.080826 
L 309.581021 69.111353 
L 309.743429 72.263636 
L 309.905838 72.457281 
L 310.068246 71.901795 
L 310.230655 67.963259 
L 310.393063 67.109744 
L 310.555472 82.570353 
L 310.71788 80.287778 
L 310.880289 73.126638 
L 311.042697 74.300155 
L 311.205106 84.930191 
L 311.367514 84.818522 
L 311.692331 67.546927 
L 311.854739 73.999775 
L 312.017148 73.782284 
L 312.179556 88.034175 
L 312.341965 74.841423 
L 312.504373 87.022431 
L 312.666782 75.986456 
L 312.82919 73.206372 
L 312.991599 65.863456 
L 313.154007 77.366102 
L 313.316416 75.145178 
L 313.478824 74.653256 
L 313.641233 86.219779 
L 313.803641 79.704177 
L 313.96605 85.423666 
L 314.128458 76.40173 
L 314.453275 75.6941 
L 314.615684 64.838493 
L 314.778092 68.754354 
L 314.9405 69.461125 
L 315.265317 80.899122 
L 315.590134 65.822087 
L 315.752543 65.522495 
L 316.07736 90.521961 
L 316.239768 72.683987 
L 316.402177 75.23778 
L 316.564585 60.816881 
L 316.726994 82.318014 
L 317.051811 75.736894 
L 317.214219 79.274228 
L 317.376628 75.745791 
L 317.539036 74.988181 
L 317.701445 75.86029 
L 318.026262 85.815301 
L 318.18867 75.890708 
L 318.351078 88.947705 
L 318.513487 84.581347 
L 318.675895 69.042209 
L 318.838304 78.464391 
L 319.000712 76.099852 
L 319.163121 76.845377 
L 319.325529 79.504546 
L 319.487938 74.345832 
L 319.812755 87.934771 
L 319.975163 88.712324 
L 320.137572 78.307929 
L 320.29998 88.246079 
L 320.462389 79.963673 
L 320.624797 91.110237 
L 320.787206 85.062666 
L 320.949614 90.329005 
L 321.112023 87.438314 
L 321.274431 103.123985 
L 321.43684 79.366051 
L 321.599248 93.686413 
L 321.924065 64.524626 
L 322.248882 71.278643 
L 322.41129 80.570336 
L 322.573699 75.527749 
L 322.898516 95.385431 
L 323.060924 92.935007 
L 323.223333 80.997907 
L 323.385741 79.598484 
L 323.54815 62.264959 
L 323.710558 76.735361 
L 324.035375 88.769505 
L 324.197784 85.353119 
L 324.360192 74.437622 
L 324.522601 73.420262 
L 324.685009 79.836288 
L 325.009826 63.496567 
L 325.172235 65.528613 
L 325.334643 63.737337 
L 325.497051 80.75141 
L 325.65946 69.020547 
L 325.821868 86.983215 
L 325.984277 69.389651 
L 326.309094 84.960329 
L 326.471502 76.646479 
L 326.633911 75.493925 
L 326.796319 65.529574 
L 326.958728 84.753966 
L 327.121136 68.123915 
L 327.283545 89.582639 
L 327.445953 78.054082 
L 327.608362 83.651335 
L 327.933179 71.604549 
L 328.095587 85.01619 
L 328.257996 78.722306 
L 328.420404 87.176246 
L 328.582813 84.95825 
L 328.745221 86.320847 
L 328.907629 83.787153 
L 329.070038 73.049865 
L 329.232446 71.009609 
L 329.557263 91.364962 
L 329.719672 78.594061 
L 329.88208 84.667221 
L 330.044489 69.02063 
L 330.206897 68.035898 
L 330.369306 73.328086 
L 330.531714 87.802546 
L 330.694123 86.015289 
L 330.856531 92.764399 
L 331.01894 91.017671 
L 331.181348 79.026504 
L 331.343757 77.707758 
L 331.506165 102.30666 
L 331.830982 85.640974 
L 331.993391 85.507283 
L 332.155799 83.209075 
L 332.318208 83.063474 
L 332.480616 85.842749 
L 332.643024 85.992944 
L 332.805433 81.321973 
L 332.967841 80.000115 
L 333.13025 80.609376 
L 333.292658 82.942924 
L 333.617475 71.276756 
L 333.779884 81.551344 
L 333.942292 76.574082 
L 334.104701 82.108017 
L 334.267109 67.487369 
L 334.429518 100.88555 
L 334.591926 65.414356 
L 334.754335 65.748692 
L 335.079152 85.263914 
L 335.24156 74.060065 
L 335.403969 77.111119 
L 335.566377 77.241025 
L 335.728786 82.374741 
L 335.891194 81.525276 
L 336.053602 83.909548 
L 336.216011 73.386664 
L 336.378419 88.820778 
L 336.540828 73.083998 
L 336.703236 75.165771 
L 337.190462 95.090227 
L 337.35287 93.264178 
L 337.677687 59.643147 
L 337.840096 70.369014 
L 338.002504 69.683977 
L 338.164913 87.106149 
L 338.327321 86.222333 
L 338.48973 75.789291 
L 338.652138 87.953517 
L 338.814547 77.779078 
L 338.976955 78.572574 
L 339.301772 99.028172 
L 339.46418 87.173009 
L 339.788997 96.660234 
L 339.951406 75.809586 
L 340.113814 92.521453 
L 340.276223 83.168001 
L 340.438631 81.749792 
L 340.60104 73.327663 
L 340.925857 77.341646 
L 341.088265 64.562452 
L 341.413082 90.311376 
L 341.575491 78.166193 
L 341.737899 79.321514 
L 341.900308 66.760826 
L 342.062716 73.670108 
L 342.225125 68.738159 
L 342.387533 81.530695 
L 342.549942 70.184957 
L 342.71235 66.808015 
L 343.037167 97.448725 
L 343.199575 93.792915 
L 343.361984 102.327372 
L 343.524392 74.462244 
L 343.686801 75.042251 
L 343.849209 64.150546 
L 344.336435 94.109803 
L 344.498843 77.031183 
L 344.661252 87.4452 
L 344.82366 68.480068 
L 344.986069 86.256371 
L 345.310886 68.415369 
L 345.473294 84.919529 
L 345.798111 72.153843 
L 345.96052 74.650696 
L 346.122928 69.496863 
L 346.285337 76.214913 
L 346.447745 66.646111 
L 346.610153 63.781105 
L 346.93497 80.169709 
L 347.097379 71.400166 
L 347.259787 73.352133 
L 347.422196 65.294482 
L 347.584604 75.527853 
L 347.747013 77.753199 
L 347.909421 78.273236 
L 348.07183 65.625833 
L 348.396647 67.040217 
L 348.559055 64.903541 
L 348.721464 75.513517 
L 348.883872 78.842613 
L 349.046281 72.024586 
L 349.208689 91.439935 
L 349.371098 69.756169 
L 349.695915 85.214724 
L 349.858323 73.403736 
L 350.18314 88.987171 
L 350.345548 84.192704 
L 350.507957 86.604163 
L 350.670365 82.763942 
L 350.832774 90.987106 
L 350.995182 77.894684 
L 351.157591 92.262935 
L 351.319999 95.049485 
L 351.482408 79.587092 
L 351.644816 94.141887 
L 351.807225 69.65321 
L 352.132042 77.244503 
L 352.29445 68.407295 
L 352.456859 70.12676 
L 352.619267 84.224868 
L 352.944084 77.393087 
L 353.106493 65.685466 
L 353.268901 75.347221 
L 353.43131 75.861453 
L 353.593718 67.284137 
L 353.918535 80.66619 
L 354.080943 77.673242 
L 354.243352 91.931255 
L 354.40576 81.784015 
L 354.568169 81.207131 
L 354.892986 77.494913 
L 355.055394 85.83167 
L 355.217803 72.533429 
L 355.380211 82.527289 
L 355.54262 73.657896 
L 355.705028 74.493914 
L 355.867437 85.704394 
L 356.192254 69.293099 
L 356.354662 77.883959 
L 356.517071 75.748578 
L 356.679479 62.256489 
L 356.841888 65.861468 
L 357.004296 77.139927 
L 357.166704 63.285908 
L 357.329113 75.906501 
L 357.491521 65.437575 
L 357.65393 86.900038 
L 357.816338 72.291377 
L 357.978747 80.841201 
L 358.141155 69.425412 
L 358.303564 70.072646 
L 358.790789 85.917912 
L 358.953198 64.108774 
L 359.115606 82.592302 
L 359.278015 88.263241 
L 359.440423 68.984453 
L 359.602832 69.18198 
L 359.76524 83.845604 
L 360.090057 68.604459 
L 360.252466 67.686256 
L 360.577283 83.886767 
L 360.739691 69.593765 
L 360.902099 72.958926 
L 361.064508 71.666762 
L 361.389325 83.469474 
L 361.551733 83.334891 
L 361.87655 72.203556 
L 362.038959 73.341489 
L 362.201367 88.088847 
L 362.363776 68.816905 
L 362.526184 79.25441 
L 362.688593 64.890859 
L 362.851001 86.720876 
L 363.01341 70.989089 
L 363.175818 68.829755 
L 363.338227 92.226127 
L 363.500635 76.56494 
L 363.663044 79.418087 
L 363.987861 68.761126 
L 364.312677 76.613631 
L 364.475086 68.524967 
L 364.799903 66.583557 
L 364.962311 84.623241 
L 365.287128 68.682445 
L 365.449537 80.243653 
L 365.611945 75.184475 
L 365.774354 99.261856 
L 365.936762 91.050427 
L 366.099171 76.628099 
L 366.423988 89.498349 
L 366.586396 76.066838 
L 366.748805 79.391868 
L 366.911213 77.427592 
L 367.073622 62.757813 
L 367.398439 103.789615 
L 367.560847 91.354311 
L 367.885664 98.124938 
L 368.048072 73.575669 
L 368.210481 68.810231 
L 368.372889 80.239404 
L 368.535298 77.856987 
L 368.697706 71.466953 
L 368.860115 79.742472 
L 369.022523 77.953789 
L 369.184932 88.094559 
L 369.34734 85.246582 
L 369.509749 87.036384 
L 369.834566 71.149064 
L 369.996974 65.354284 
L 370.159383 66.4065 
L 370.321791 81.470401 
L 370.646608 70.628644 
L 370.971425 55.269919 
L 371.133834 83.782152 
L 371.45865 88.008619 
L 371.783467 83.788318 
L 371.945876 58.901129 
L 372.108284 93.387216 
L 372.433101 66.697957 
L 372.757918 77.211656 
L 372.920327 78.921126 
L 373.082735 65.752969 
L 373.245144 80.520596 
L 373.407552 78.55482 
L 373.569961 92.378923 
L 373.732369 82.363866 
L 373.894778 81.524405 
L 374.057186 80.029752 
L 374.219595 81.732853 
L 374.382003 79.21801 
L 374.544412 83.611834 
L 374.70682 99.262589 
L 374.869228 94.191246 
L 375.194045 70.487273 
L 375.518862 88.495641 
L 375.681271 79.465346 
L 375.843679 89.098766 
L 376.006088 89.035164 
L 376.168496 95.701972 
L 376.330905 74.648128 
L 376.493313 82.625975 
L 376.655722 78.489698 
L 376.81813 100.297598 
L 377.142947 79.367056 
L 377.305356 80.223844 
L 377.467764 72.289013 
L 377.630173 75.113507 
L 377.792581 72.428316 
L 377.95499 60.097039 
L 378.117398 65.086115 
L 378.279806 84.366244 
L 378.442215 76.10115 
L 378.604623 82.993373 
L 378.767032 76.824526 
L 378.92944 76.138687 
L 379.091849 68.102234 
L 379.416666 96.677872 
L 379.579074 90.461774 
L 379.741483 69.336283 
L 379.903891 72.179709 
L 380.0663 83.998398 
L 380.228708 67.308589 
L 380.391117 68.852296 
L 380.553525 63.059892 
L 380.715934 66.58598 
L 381.040751 78.134368 
L 381.203159 83.872968 
L 381.365568 75.074715 
L 381.527976 89.674904 
L 381.690385 59.915901 
L 381.852793 90.870086 
L 382.17761 68.584125 
L 382.340018 78.0859 
L 382.502427 74.837403 
L 382.664835 83.365882 
L 382.827244 67.62047 
L 382.989652 93.898307 
L 383.152061 87.088044 
L 383.314469 63.631527 
L 383.476878 81.114214 
L 383.639286 73.836566 
L 383.801695 80.25 
L 383.964103 81.957837 
L 384.126512 85.456976 
L 384.28892 74.131241 
L 384.451329 75.227033 
L 384.613737 83.760997 
L 384.776146 83.666931 
L 384.938554 80.264431 
L 385.100963 93.245692 
L 385.263371 91.639629 
L 385.425779 75.349857 
L 385.588188 80.174601 
L 385.750596 67.849709 
L 385.913005 75.246672 
L 386.075413 75.219149 
L 386.237822 73.959976 
L 386.40023 67.725702 
L 386.562639 87.442971 
L 386.725047 75.73978 
L 387.049864 81.91909 
L 387.212273 74.712741 
L 387.212273 74.712741 
" style="fill:none;stroke:#1f77b4;stroke-linecap:square;stroke-width:1.5;"/>
   </g>
   <g id="line2d_16">
    <path clip-path="url(#paaa25cd34a)" d="M 62.557727 19.344264 
L 170.721773 19.338962 
L 387.212273 19.338962 
L 387.212273 19.338962 
" style="fill:none;stroke:#ff7f0e;stroke-linecap:square;stroke-width:1.5;"/>
   </g>
   <g id="patch_3">
    <path d="M 46.325 273.354962 
L 46.325 7.242962 
" style="fill:none;stroke:#000000;stroke-linecap:square;stroke-linejoin:miter;stroke-width:0.8;"/>
   </g>
   <g id="patch_4">
    <path d="M 403.445 273.354962 
L 403.445 7.242962 
" style="fill:none;stroke:#000000;stroke-linecap:square;stroke-linejoin:miter;stroke-width:0.8;"/>
   </g>
   <g id="patch_5">
    <path d="M 46.325 273.354962 
L 403.445 273.354962 
" style="fill:none;stroke:#000000;stroke-linecap:square;stroke-linejoin:miter;stroke-width:0.8;"/>
   </g>
   <g id="patch_6">
    <path d="M 46.325 7.242962 
L 403.445 7.242962 
" style="fill:none;stroke:#000000;stroke-linecap:square;stroke-linejoin:miter;stroke-width:0.8;"/>
   </g>
   <g id="legend_1">
    <g id="patch_7">
     <path d="M 254.445 268.354962 
L 396.445 268.354962 
Q 398.445 268.354962 398.445 266.354962 
L 398.445 238.683087 
Q 398.445 236.683087 396.445 236.683087 
L 254.445 236.683087 
Q 252.445 236.683087 252.445 238.683087 
L 252.445 266.354962 
Q 252.445 268.354962 254.445 268.354962 
z
" style="fill:#ffffff;opacity:0.8;stroke:#cccccc;stroke-linejoin:miter;"/>
    </g>
    <g id="line2d_17">
     <path d="M 256.445 245.269024 
L 276.445 245.269024 
" style="fill:none;stroke:#1f77b4;stroke-linecap:square;stroke-width:1.5;"/>
    </g>
    <g id="line2d_18"/>
    <g id="text_17">
     <!--  -->
     <defs>
      <path d="M 66.015625 62.5 
Q 66.015625 77.734375 65.625 82.421875 
L 73.828125 82.421875 
Q 73.4375 78.125 73.4375 62.5 
L 93.75 62.5 
Q 93.359375 58.203125 93.359375 50.78125 
L 93.359375 24.21875 
Q 93.359375 19.921875 93.75 14.453125 
L 85.9375 14.453125 
L 85.9375 22.265625 
L 73.4375 22.265625 
L 73.4375 5.859375 
Q 73.4375 -4.296875 73.828125 -10.9375 
L 65.625 -10.9375 
Q 66.015625 -4.296875 66.015625 5.859375 
L 66.015625 22.265625 
L 53.515625 22.265625 
L 53.515625 12.890625 
L 45.703125 12.890625 
Q 46.09375 17.578125 46.09375 23.4375 
L 46.09375 50 
Q 46.09375 58.203125 45.703125 62.5 
L 66.015625 62.5 
z
M 5.46875 50.78125 
Q 11.328125 50.390625 19.140625 50.390625 
L 22.265625 50.390625 
L 22.265625 67.578125 
Q 18.359375 66.40625 8.984375 64.453125 
Q 7.421875 67.96875 5.46875 71.484375 
Q 14.0625 71.875 22.0625 74.015625 
Q 30.078125 76.171875 36.71875 79.6875 
Q 39.0625 76.5625 42.578125 72.265625 
Q 38.671875 71.875 35.9375 71.09375 
Q 33.203125 70.3125 29.6875 69.53125 
L 29.6875 50.390625 
Q 34.765625 50.390625 42.1875 50.78125 
L 42.1875 43.75 
Q 34.765625 44.140625 29.6875 44.140625 
L 29.6875 3.515625 
Q 29.6875 -1.953125 30.078125 -10.15625 
L 21.875 -10.15625 
Q 22.265625 -1.953125 22.265625 3.515625 
L 22.265625 29.296875 
Q 19.140625 21.484375 16.59375 16.796875 
Q 14.0625 12.109375 9.765625 5.46875 
Q 6.640625 9.765625 3.90625 13.28125 
Q 9.375 19.140625 13.859375 26.953125 
Q 18.359375 34.765625 20.3125 44.140625 
L 14.453125 44.140625 
Q 8.984375 44.140625 5.46875 43.75 
z
M 66.015625 28.515625 
L 66.015625 56.25 
L 53.515625 56.25 
L 53.515625 28.515625 
z
M 85.9375 28.515625 
L 85.9375 56.25 
L 73.4375 56.25 
L 73.4375 28.515625 
z
M 37.109375 38.671875 
Q 38.28125 35.9375 40.234375 33.203125 
Q 42.1875 30.46875 44.53125 25.390625 
Q 41.015625 23.828125 37.890625 21.484375 
Q 35.9375 25.78125 34.5625 28.703125 
Q 33.203125 31.640625 30.859375 34.765625 
Q 33.203125 36.328125 37.109375 38.671875 
z
" id="SimHei-31181"/>
      <path d="M 39.0625 -6.640625 
L 39.0625 0.390625 
L 23.046875 0.390625 
L 23.046875 -9.375 
L 15.625 -9.375 
Q 16.015625 -3.515625 16.015625 21.875 
Q 12.890625 17.1875 9.375 13.28125 
Q 7.03125 16.40625 3.125 17.578125 
Q 7.03125 21.484375 10.9375 26.953125 
Q 14.84375 32.421875 16.40625 37.109375 
Q 13.28125 37.109375 8.59375 36.71875 
L 8.59375 43.359375 
Q 14.0625 42.96875 17.578125 42.96875 
Q 18.75 48.828125 18.75 53.125 
Q 10.546875 53.125 5.859375 52.734375 
L 5.859375 59.375 
Q 10.9375 58.984375 18.75 58.984375 
L 18.75 69.921875 
Q 16.40625 69.921875 10.15625 69.53125 
L 10.15625 76.5625 
Q 16.015625 76.171875 19.921875 76.171875 
L 46.09375 76.171875 
Q 45.703125 70.3125 45.703125 58.984375 
Q 48.046875 58.984375 51.171875 59.375 
L 51.171875 52.734375 
Q 48.046875 53.125 45.703125 53.125 
Q 45.703125 41.796875 46.09375 37.109375 
L 23.4375 37.109375 
Q 21.09375 30.078125 19.140625 27.34375 
L 46.484375 27.34375 
Q 46.09375 22.265625 46.09375 10.546875 
Q 46.09375 -1.171875 46.484375 -6.640625 
z
M 76.171875 19.921875 
Q 91.015625 19.921875 94.921875 20.3125 
L 94.921875 13.671875 
Q 91.015625 14.0625 76.171875 14.0625 
L 76.171875 3.515625 
Q 76.171875 -3.515625 76.5625 -10.9375 
L 68.75 -10.9375 
Q 69.140625 -3.515625 69.140625 3.515625 
L 69.140625 14.0625 
Q 55.46875 14.0625 50 13.671875 
L 50 20.3125 
Q 55.46875 19.921875 69.140625 19.921875 
L 69.140625 35.15625 
Q 57.421875 35.15625 53.125 34.765625 
L 53.125 41.40625 
Q 57.8125 41.015625 69.140625 41.015625 
L 69.140625 54.6875 
Q 58.984375 54.6875 52.734375 54.296875 
L 52.734375 60.9375 
Q 58.984375 60.546875 74.21875 60.546875 
Q 78.515625 69.921875 81.640625 80.859375 
Q 86.328125 78.515625 90.625 77.734375 
Q 89.0625 75.390625 86.71875 71.28125 
Q 84.375 67.1875 81.25 60.546875 
Q 87.890625 60.546875 92.96875 60.9375 
L 92.96875 54.296875 
Q 88.28125 54.6875 76.171875 54.6875 
L 76.171875 41.015625 
L 81.640625 41.015625 
L 91.796875 41.40625 
L 91.796875 34.765625 
Q 86.328125 35.15625 76.171875 35.15625 
z
M 39.0625 6.25 
L 39.0625 21.09375 
L 23.046875 21.09375 
L 23.046875 6.25 
z
M 38.671875 58.984375 
L 38.671875 69.921875 
L 25.78125 69.921875 
L 25.78125 58.984375 
z
M 38.671875 42.96875 
L 38.671875 53.125 
L 25.78125 53.125 
Q 25.390625 48.828125 24.609375 42.96875 
z
M 62.890625 65.234375 
Q 59.375 71.875 55.859375 76.953125 
Q 58.59375 78.125 61.328125 80.46875 
Q 64.84375 76.5625 69.140625 69.53125 
Q 65.234375 67.1875 62.890625 65.234375 
z
" id="SimHei-32676"/>
      <path d="M 53.515625 75.390625 
Q 69.921875 51.171875 96.09375 43.359375 
Q 92.1875 38.671875 90.234375 34.375 
Q 64.84375 45.3125 49.21875 69.140625 
Q 34.765625 46.09375 10.546875 33.203125 
Q 8.59375 36.71875 3.90625 40.625 
Q 22.65625 48.4375 33 60.546875 
Q 43.359375 72.65625 46.875 82.421875 
Q 51.5625 80.46875 56.25 78.90625 
Q 54.6875 76.953125 53.515625 75.390625 
z
M 45.703125 36.71875 
Q 45.703125 42.96875 44.921875 52.734375 
L 53.90625 52.734375 
Q 53.515625 46.09375 53.515625 36.328125 
L 53.515625 8.59375 
Q 53.515625 -0.390625 53.90625 -9.765625 
L 45.3125 -9.765625 
Q 45.703125 0 45.703125 8.203125 
z
" id="SimHei-20010"/>
      <path d="M 57.03125 60.15625 
Q 57.03125 74.21875 56.640625 80.078125 
L 64.453125 80.078125 
Q 64.0625 74.609375 64.0625 60.15625 
L 81.25 60.15625 
Q 89.0625 60.15625 92.578125 60.546875 
L 92.578125 53.515625 
Q 89.0625 53.90625 81.25 53.90625 
L 70.703125 53.90625 
Q 76.953125 28.90625 96.875 18.75 
Q 92.578125 16.40625 90.234375 12.109375 
Q 69.140625 28.125 64.0625 53.515625 
L 64.0625 16.015625 
Q 75.390625 16.015625 78.90625 16.40625 
L 78.90625 9.375 
Q 75.390625 9.765625 64.0625 9.765625 
Q 64.0625 1.171875 64.453125 -8.984375 
L 56.640625 -8.984375 
Q 57.03125 1.5625 57.03125 9.765625 
Q 50 9.765625 42.1875 9.375 
L 42.1875 16.40625 
Q 50 16.015625 57.03125 16.015625 
L 57.03125 53.90625 
Q 52.734375 28.125 31.25 10.15625 
Q 28.90625 13.671875 24.21875 16.015625 
Q 44.53125 29.296875 50 53.90625 
L 41.796875 53.90625 
Q 35.546875 53.90625 30.859375 53.515625 
L 30.859375 60.546875 
Q 35.546875 60.15625 41.796875 60.15625 
z
M 31.25 76.5625 
Q 28.515625 73.046875 23.828125 58.984375 
L 23.828125 8.984375 
Q 23.828125 -3.125 24.21875 -8.59375 
L 16.40625 -8.59375 
Q 16.796875 -3.515625 16.796875 8.59375 
L 16.796875 45.3125 
Q 14.84375 41.015625 8.984375 32.03125 
Q 7.03125 35.546875 3.515625 37.890625 
Q 8.203125 42.578125 14.453125 56.4375 
Q 20.703125 70.3125 22.265625 80.078125 
Q 26.5625 78.125 31.25 76.5625 
z
" id="SimHei-20307"/>
      <path d="M 70.703125 75.390625 
Q 76.5625 75.390625 85.15625 75.78125 
L 85.15625 68.359375 
Q 76.953125 68.75 70.703125 68.75 
L 54.296875 68.75 
L 54.296875 31.640625 
L 78.125 31.640625 
Q 86.71875 31.640625 94.140625 32.03125 
L 94.140625 24.609375 
Q 86.71875 25 78.125 25 
L 54.296875 25 
L 54.296875 7.03125 
Q 54.296875 -1.5625 54.6875 -9.375 
L 45.703125 -9.375 
Q 46.09375 -1.5625 46.09375 7.03125 
L 46.09375 25 
L 17.578125 25 
Q 12.109375 25 5.859375 24.609375 
L 5.859375 32.03125 
Q 12.109375 31.640625 18.359375 31.640625 
L 46.09375 31.640625 
L 46.09375 68.75 
L 27.734375 68.75 
Q 21.875 68.75 13.671875 68.359375 
L 13.671875 75.78125 
Q 21.875 75.390625 27.34375 75.390625 
z
M 61.328125 40.625 
Q 70.3125 51.5625 76.5625 64.453125 
Q 80.46875 61.71875 84.375 59.765625 
Q 74.609375 44.53125 67.96875 35.9375 
Q 64.84375 38.671875 61.328125 40.625 
z
M 30.859375 36.71875 
Q 25 48.4375 16.40625 58.203125 
Q 19.53125 60.546875 22.65625 63.28125 
Q 32.421875 51.5625 38.28125 42.578125 
Q 33.59375 39.0625 30.859375 36.71875 
z
" id="SimHei-24179"/>
      <path d="M 90.234375 4.296875 
Q 90.234375 -5.078125 83.78125 -7.03125 
Q 77.34375 -8.984375 69.140625 -9.375 
Q 68.359375 -4.296875 66.40625 0.390625 
Q 77.34375 -0.390625 80.078125 0.96875 
Q 82.8125 2.34375 82.8125 7.8125 
L 83.984375 57.8125 
L 55.46875 57.8125 
Q 53.515625 52.734375 50.96875 47.453125 
Q 48.4375 42.1875 45.703125 37.5 
Q 41.796875 39.84375 38.671875 41.015625 
Q 49.21875 56.640625 54.6875 81.25 
Q 59.375 79.6875 63.671875 78.515625 
Q 62.109375 76.171875 60.546875 72.65625 
Q 58.984375 69.140625 57.421875 64.453125 
L 92.1875 64.453125 
L 90.234375 4.296875 
z
M 19.53125 56.640625 
L 19.53125 68.359375 
Q 19.53125 74.609375 19.140625 79.6875 
L 27.734375 79.6875 
Q 27.34375 73.828125 27.34375 68.359375 
L 27.34375 56.640625 
L 29.6875 56.640625 
Q 34.375 56.640625 39.453125 57.03125 
L 39.453125 49.21875 
Q 34.375 49.609375 29.6875 49.609375 
L 27.34375 49.609375 
L 27.34375 17.1875 
L 39.0625 21.484375 
Q 38.671875 17.578125 39.453125 14.0625 
Q 19.140625 7.421875 15.03125 5.65625 
Q 10.9375 3.90625 7.421875 2.34375 
Q 5.859375 7.421875 3.90625 11.71875 
Q 8.984375 12.5 12.5 13.28125 
Q 16.015625 14.0625 19.53125 15.234375 
L 19.53125 49.609375 
L 17.578125 49.609375 
Q 13.28125 49.609375 6.25 49.21875 
L 6.25 57.03125 
Q 13.28125 56.640625 17.1875 56.640625 
z
M 77.34375 25.390625 
Q 73.046875 22.265625 64.640625 16.40625 
Q 56.25 10.546875 49.609375 4.6875 
Q 46.875 8.984375 44.53125 12.109375 
Q 52.34375 16.40625 58.78125 20.703125 
Q 65.234375 25 74.609375 32.421875 
Q 75.390625 28.90625 77.34375 25.390625 
z
M 58.984375 49.21875 
Q 64.453125 43.75 69.921875 35.9375 
Q 66.40625 33.203125 64.0625 30.859375 
Q 60.9375 36.328125 53.90625 44.140625 
Q 56.25 46.875 58.984375 49.21875 
z
" id="SimHei-22343"/>
      <path d="M 83.984375 76.5625 
Q 83.59375 65.234375 83.59375 55.078125 
L 83.59375 9.375 
Q 83.59375 3.515625 83.984375 -8.59375 
L 75.390625 -8.59375 
L 75.390625 -1.5625 
L 24.609375 -1.5625 
L 24.609375 -8.203125 
L 16.40625 -8.203125 
Q 16.796875 2.34375 16.796875 8.59375 
L 16.796875 55.078125 
Q 16.796875 67.96875 16.40625 76.5625 
L 83.984375 76.5625 
z
M 75.390625 4.6875 
L 75.390625 23.046875 
L 24.609375 23.046875 
L 24.609375 4.6875 
z
M 75.390625 29.296875 
L 75.390625 46.875 
L 24.609375 46.875 
L 24.609375 29.296875 
z
M 75.390625 53.125 
L 75.390625 70.3125 
L 24.609375 70.3125 
L 24.609375 53.125 
z
" id="SimHei-30446"/>
      <path d="M 19.921875 68.75 
Q 19.921875 75 19.53125 80.859375 
L 27.34375 80.859375 
Q 26.953125 75.390625 26.953125 68.75 
L 26.953125 59.375 
Q 33.203125 59.375 40.234375 59.765625 
L 40.234375 52.34375 
Q 33.203125 52.734375 26.953125 52.734375 
L 26.953125 39.453125 
Q 29.6875 41.40625 32.421875 43.75 
Q 37.5 35.546875 41.40625 27.734375 
Q 37.109375 25.78125 33.984375 23.4375 
Q 31.640625 31.25 26.953125 37.890625 
L 26.953125 7.421875 
Q 26.953125 -0.78125 27.34375 -8.984375 
L 19.53125 -8.984375 
Q 19.921875 -0.390625 19.921875 7.421875 
L 19.921875 32.8125 
Q 16.015625 21.875 7.8125 11.71875 
Q 5.46875 14.84375 1.953125 17.578125 
Q 8.59375 24.21875 12.6875 34.171875 
Q 16.796875 44.140625 17.96875 52.734375 
Q 10.546875 52.734375 5.078125 51.953125 
L 5.078125 59.765625 
Q 12.5 59.375 19.921875 59.375 
z
M 80.859375 48.828125 
Q 88.671875 48.828125 94.53125 49.21875 
L 94.53125 41.796875 
Q 88.671875 42.1875 82.421875 42.1875 
L 70.3125 42.1875 
L 70.3125 2.734375 
Q 70.3125 -3.515625 66.796875 -5.46875 
Q 63.28125 -7.421875 54.296875 -8.59375 
Q 53.515625 -3.90625 51.171875 0.390625 
Q 58.984375 0.390625 60.9375 0.96875 
Q 62.890625 1.5625 62.890625 5.46875 
L 62.890625 42.1875 
L 53.125 42.1875 
Q 43.359375 42.1875 39.0625 41.40625 
L 39.0625 49.21875 
Q 44.140625 48.828125 53.125 48.828125 
z
M 76.5625 74.609375 
Q 84.765625 74.609375 89.84375 75 
L 89.84375 67.1875 
Q 82.421875 67.96875 74.21875 67.96875 
L 55.078125 67.96875 
Q 48.828125 67.96875 42.96875 67.1875 
L 42.96875 75 
Q 48.4375 74.609375 55.078125 74.609375 
z
M 82.421875 31.640625 
Q 91.015625 18.359375 96.875 7.8125 
Q 92.578125 5.859375 88.28125 3.125 
Q 83.984375 14.453125 75.390625 26.953125 
Q 79.296875 28.90625 82.421875 31.640625 
z
M 56.25 27.734375 
Q 54.6875 25.390625 50.390625 15.234375 
Q 46.09375 5.078125 43.75 0.78125 
Q 40.234375 2.734375 35.9375 4.296875 
Q 41.015625 12.109375 43.546875 18.546875 
Q 46.09375 25 47.65625 31.25 
Q 51.953125 29.296875 56.25 27.734375 
z
" id="SimHei-26631"/>
      <path d="M 18.75 3.125 
L 81.25 3.125 
L 81.25 34.765625 
Q 81.25 40.625 80.46875 48.046875 
L 89.0625 48.046875 
Q 88.671875 39.0625 88.671875 34.765625 
L 88.671875 0.78125 
Q 88.671875 -4.296875 89.0625 -9.765625 
L 81.25 -9.765625 
L 81.25 -3.515625 
L 10.9375 -3.515625 
Q 11.328125 0.78125 11.328125 21.484375 
Q 11.328125 42.1875 10.9375 48.046875 
L 19.140625 48.046875 
Q 18.75 43.75 18.75 38.671875 
z
M 85.15625 76.953125 
L 85.15625 69.53125 
Q 79.296875 67.578125 69.921875 63.078125 
Q 60.546875 58.59375 54.296875 55.859375 
L 54.296875 17.1875 
Q 54.296875 10.9375 50 9.171875 
Q 45.703125 7.421875 39.453125 6.25 
Q 38.671875 10.546875 36.71875 14.84375 
Q 42.96875 14.84375 45.109375 15.625 
Q 47.265625 16.40625 47.265625 21.484375 
L 47.265625 48.046875 
Q 47.265625 55.46875 46.484375 60.15625 
Q 50.390625 61.328125 57.8125 64.453125 
Q 65.234375 67.578125 70.3125 70.3125 
L 30.46875 70.3125 
Q 22.265625 70.3125 16.015625 69.921875 
L 16.015625 77.34375 
Q 23.828125 76.953125 30.46875 76.953125 
z
M 70.3125 27.34375 
Q 73.4375 24.609375 78.125 19.921875 
Q 75.390625 17.578125 72.65625 14.0625 
Q 68.75 18.359375 65.625 21.484375 
Q 62.5 24.609375 56.25 30.078125 
Q 58.984375 32.8125 60.9375 35.546875 
z
M 42.1875 28.125 
Q 39.453125 26.171875 34.953125 23.234375 
Q 30.46875 20.3125 25 15.625 
Q 23.828125 18.359375 20.703125 22.265625 
Q 23.4375 23.4375 29.484375 27.140625 
Q 35.546875 30.859375 39.84375 34.765625 
Q 40.625 31.640625 42.1875 28.125 
z
M 77.734375 49.609375 
Q 75 48.4375 71.28125 45.5 
Q 67.578125 42.578125 62.5 38.671875 
Q 60.546875 42.1875 58.59375 44.53125 
Q 62.890625 47.65625 65.625 50 
Q 68.359375 52.34375 71.875 55.859375 
Q 74.609375 52.734375 77.734375 49.609375 
z
M 36.71875 39.84375 
Q 34.375 42.96875 31.25 45.890625 
Q 28.125 48.828125 23.046875 52.34375 
Q 25.78125 55.078125 27.34375 57.8125 
Q 31.640625 54.6875 41.40625 46.09375 
Q 38.671875 42.578125 36.71875 39.84375 
z
" id="SimHei-20989"/>
      <path d="M 70.703125 76.953125 
Q 69.921875 75 68.75 71.671875 
Q 67.578125 68.359375 65.234375 59.765625 
L 83.203125 59.765625 
Q 87.109375 59.765625 92.578125 60.15625 
L 92.578125 53.125 
Q 88.28125 53.515625 85.9375 53.515625 
Q 85.9375 47.265625 83.78125 33.78125 
Q 81.640625 20.3125 76.171875 10.546875 
Q 80.078125 5.859375 84.953125 2.140625 
Q 89.84375 -1.5625 94.140625 -3.125 
Q 89.453125 -6.640625 87.890625 -9.765625 
Q 83.203125 -7.03125 79.296875 -3.515625 
Q 75.390625 0 71.484375 5.078125 
Q 67.1875 0.390625 62.296875 -2.921875 
Q 57.421875 -6.25 50 -10.15625 
Q 48.046875 -6.640625 44.53125 -4.6875 
Q 50.390625 -2.34375 57.03125 1.953125 
Q 63.671875 6.25 67.1875 10.546875 
Q 64.453125 16.015625 61.90625 22.265625 
Q 59.375 28.515625 57.421875 38.671875 
Q 56.25 35.546875 53.515625 30.46875 
Q 50.78125 32.03125 46.875 33.59375 
Q 53.125 44.53125 57.03125 57.421875 
Q 60.9375 70.3125 62.109375 79.6875 
Q 66.796875 77.734375 70.703125 76.953125 
z
M 32.8125 35.15625 
Q 31.25 33.59375 29.296875 30.078125 
L 50.78125 30.078125 
Q 48.4375 20.3125 42.578125 10.546875 
Q 48.828125 8.203125 52.34375 6.25 
Q 50.390625 3.515625 48.828125 0.390625 
Q 45.3125 2.734375 38.28125 5.078125 
Q 30.46875 -3.515625 11.328125 -10.15625 
Q 9.375 -5.859375 6.25 -4.296875 
Q 24.609375 0 31.25 7.421875 
Q 20.3125 10.15625 13.28125 12.109375 
Q 15.625 15.625 19.53125 23.828125 
Q 15.625 23.828125 6.640625 23.4375 
L 6.640625 30.46875 
Q 14.0625 30.078125 21.875 30.078125 
Q 23.4375 33.59375 24.21875 37.890625 
Q 28.515625 36.328125 32.8125 35.15625 
z
M 27.734375 61.71875 
Q 27.734375 71.09375 27.34375 79.6875 
L 35.15625 79.6875 
Q 34.765625 71.484375 34.765625 61.71875 
Q 48.046875 61.71875 53.515625 62.109375 
L 53.515625 55.078125 
Q 48.046875 55.46875 34.765625 55.46875 
Q 34.765625 44.140625 35.15625 37.890625 
L 27.34375 37.890625 
Q 27.734375 43.359375 27.734375 51.5625 
Q 25.78125 48.4375 20.3125 43.546875 
Q 14.84375 38.671875 10.15625 35.9375 
Q 8.203125 39.453125 4.296875 41.015625 
Q 7.8125 42.1875 13.671875 46.484375 
Q 19.53125 50.78125 22.65625 55.46875 
Q 14.84375 55.46875 7.8125 55.078125 
L 7.8125 62.109375 
Q 14.453125 61.71875 27.734375 61.71875 
z
M 62.109375 49.609375 
Q 65.625 26.5625 71.875 17.578125 
Q 75.78125 26.5625 77.140625 35.734375 
Q 78.515625 44.921875 78.90625 53.515625 
L 63.671875 53.515625 
L 62.109375 49.609375 
z
M 22.65625 15.625 
Q 27.34375 14.453125 35.546875 12.5 
Q 38.671875 16.40625 41.40625 23.828125 
L 26.953125 23.828125 
Q 25 19.921875 22.65625 15.625 
z
M 51.953125 75.390625 
Q 50 72.265625 48.828125 69.53125 
Q 47.65625 66.796875 45.703125 62.890625 
Q 42.578125 64.453125 39.453125 65.234375 
Q 42.578125 70.3125 45.3125 78.125 
Q 49.21875 76.171875 51.953125 75.390625 
z
M 40.234375 52.734375 
Q 45.3125 47.65625 50 42.578125 
Q 47.65625 40.625 44.921875 37.890625 
Q 39.453125 44.53125 35.9375 48.4375 
Q 38.28125 50.390625 40.234375 52.734375 
z
M 14.453125 78.125 
Q 19.921875 72.65625 23.4375 67.1875 
L 17.578125 63.671875 
Q 14.84375 69.140625 9.375 73.828125 
Q 12.890625 76.171875 14.453125 78.125 
z
" id="SimHei-25968"/>
      <path d="M 57.421875 69.53125 
L 57.421875 79.6875 
Q 62.109375 79.296875 67.96875 78.90625 
Q 66.015625 76.171875 65.625 69.53125 
L 80.078125 69.53125 
Q 86.71875 69.53125 91.796875 69.921875 
L 91.796875 62.890625 
Q 86.328125 63.28125 80.078125 63.28125 
L 65.234375 63.28125 
L 64.453125 54.6875 
L 84.375 54.6875 
Q 83.984375 50 83.984375 42.1875 
L 83.984375 2.34375 
Q 91.796875 2.34375 95.3125 2.734375 
L 95.3125 -4.296875 
Q 90.234375 -3.90625 81.25 -3.90625 
L 44.53125 -3.90625 
Q 35.546875 -3.90625 29.6875 -4.296875 
L 29.6875 2.734375 
Q 33.203125 2.34375 40.625 2.34375 
L 40.625 42.1875 
Q 40.625 49.609375 40.234375 54.6875 
L 56.25 54.6875 
L 57.03125 63.28125 
L 50 63.28125 
Q 40.234375 63.28125 34.765625 62.890625 
L 34.765625 69.921875 
Q 39.84375 69.53125 50 69.53125 
z
M 34.765625 76.5625 
Q 31.640625 73.046875 25.78125 58.59375 
L 25.78125 7.03125 
Q 25.78125 -1.171875 26.171875 -8.59375 
L 17.96875 -8.59375 
Q 18.359375 -1.953125 18.359375 5.859375 
L 18.359375 46.09375 
Q 13.671875 38.28125 9.765625 33.59375 
Q 6.640625 37.890625 3.90625 40.234375 
Q 7.8125 44.140625 14.640625 55.265625 
Q 21.484375 66.40625 25.390625 80.46875 
Q 30.859375 77.734375 34.765625 76.5625 
z
M 76.953125 41.40625 
L 76.953125 49.21875 
L 48.046875 49.21875 
L 48.046875 41.40625 
z
M 76.953125 2.34375 
L 76.953125 9.765625 
L 48.046875 9.765625 
L 48.046875 2.34375 
z
M 76.953125 15.625 
L 76.953125 22.65625 
L 48.046875 22.65625 
L 48.046875 15.625 
z
M 76.953125 28.515625 
L 76.953125 35.546875 
L 48.046875 35.546875 
L 48.046875 28.515625 
z
" id="SimHei-20540"/>
     </defs>
     <g transform="translate(284.445 248.769024)scale(0.1 -0.1)">
      <use xlink:href="#SimHei-31181"/>
      <use x="100" xlink:href="#SimHei-32676"/>
      <use x="200" xlink:href="#SimHei-20010"/>
      <use x="300" xlink:href="#SimHei-20307"/>
      <use x="400" xlink:href="#SimHei-24179"/>
      <use x="500" xlink:href="#SimHei-22343"/>
      <use x="600" xlink:href="#SimHei-30446"/>
      <use x="700" xlink:href="#SimHei-26631"/>
      <use x="800" xlink:href="#SimHei-20989"/>
      <use x="900" xlink:href="#SimHei-25968"/>
      <use x="1000" xlink:href="#SimHei-20540"/>
     </g>
    </g>
    <g id="line2d_19">
     <path d="M 256.445 259.604962 
L 276.445 259.604962 
" style="fill:none;stroke:#ff7f0e;stroke-linecap:square;stroke-width:1.5;"/>
    </g>
    <g id="line2d_20"/>
    <g id="text_18">
     <!--  -->
     <defs>
      <path d="M 7.421875 4.296875 
Q 10.546875 4.6875 17.1875 5.46875 
L 17.1875 38.28125 
Q 12.109375 38.28125 6.640625 37.890625 
L 6.640625 44.53125 
Q 12.109375 44.140625 17.578125 44.140625 
L 78.515625 44.140625 
Q 85.546875 44.140625 92.1875 44.53125 
L 92.1875 37.890625 
Q 85.546875 38.28125 78.515625 38.28125 
L 47.65625 38.28125 
L 47.65625 10.546875 
L 53.125 12.109375 
Q 53.125 8.59375 53.515625 6.25 
Q 50.390625 5.46875 47.65625 5.078125 
Q 47.65625 -1.953125 48.046875 -8.59375 
L 40.625 -8.59375 
Q 41.015625 -1.953125 41.015625 3.90625 
Q 36.71875 3.125 28.3125 1.359375 
Q 19.921875 -0.390625 10.15625 -2.734375 
Q 8.984375 1.5625 7.421875 4.296875 
z
M 79.6875 76.953125 
Q 79.296875 71.875 79.296875 67.578125 
L 79.296875 60.546875 
Q 79.296875 56.25 79.6875 50.78125 
L 19.921875 50.78125 
Q 20.3125 56.25 20.3125 60.546875 
L 20.3125 67.578125 
Q 20.3125 71.875 19.921875 76.953125 
L 79.6875 76.953125 
z
M 51.5625 32.03125 
Q 58.59375 31.640625 64.453125 31.640625 
L 83.984375 31.640625 
Q 79.6875 15.234375 73.828125 6.25 
Q 83.59375 0 92.578125 -1.5625 
Q 89.0625 -4.296875 88.28125 -7.8125 
Q 78.515625 -4.6875 69.921875 2.34375 
Q 64.84375 -3.125 56.25 -8.984375 
Q 54.6875 -6.640625 50.78125 -4.296875 
Q 58.984375 -1.5625 64.84375 5.46875 
Q 58.203125 12.109375 54.6875 26.171875 
L 51.5625 26.171875 
z
M 71.875 66.40625 
L 71.875 71.875 
L 27.34375 71.875 
L 27.34375 66.40625 
z
M 71.875 55.859375 
L 71.875 60.9375 
L 27.34375 60.9375 
L 27.34375 55.859375 
z
M 60.9375 26.171875 
Q 62.5 16.796875 68.75 9.765625 
Q 73.4375 16.40625 75.78125 26.171875 
L 60.9375 26.171875 
z
M 41.015625 19.53125 
L 41.015625 26.171875 
L 23.828125 26.171875 
L 23.828125 19.53125 
z
M 41.015625 8.984375 
L 41.015625 14.453125 
L 23.828125 14.453125 
L 23.828125 6.640625 
z
M 41.015625 31.640625 
L 41.015625 38.28125 
L 23.828125 38.28125 
L 23.828125 31.640625 
z
" id="SimHei-26368"/>
      <path d="M 72.65625 5.46875 
Q 72.265625 1.5625 75.390625 0.78125 
Q 78.515625 0 81.25 0.1875 
Q 83.984375 0.390625 85.34375 1.953125 
Q 86.71875 3.515625 88.28125 12.5 
Q 91.015625 9.765625 96.875 8.203125 
Q 94.53125 -0.390625 92.375 -3.125 
Q 90.234375 -5.859375 85.546875 -6.25 
L 73.4375 -6.25 
Q 65.234375 -6.25 65.234375 3.125 
L 65.234375 47.65625 
L 60.15625 47.65625 
Q 58.203125 9.375 37.109375 -8.59375 
Q 34.375 -5.078125 29.296875 -3.515625 
Q 49.609375 10.546875 52.34375 47.65625 
L 45.3125 47.65625 
Q 36.71875 47.65625 30.859375 47.265625 
L 30.859375 54.296875 
Q 36.71875 53.90625 45.3125 53.90625 
L 52.734375 53.90625 
Q 52.734375 73.4375 52.34375 80.46875 
Q 55.078125 79.6875 61.328125 79.296875 
Q 60.15625 73.4375 60.15625 53.90625 
L 81.25 53.90625 
Q 85.546875 53.90625 92.578125 54.296875 
L 92.578125 47.265625 
Q 85.9375 47.65625 81.640625 47.65625 
L 72.65625 47.65625 
L 72.65625 5.46875 
z
M 3.125 37.109375 
Q 8.203125 42.1875 15.625 56.4375 
Q 23.046875 70.703125 25 81.25 
Q 28.90625 78.90625 34.765625 76.953125 
Q 31.25 73.4375 26.5625 59.765625 
L 26.5625 9.375 
Q 26.5625 -2.34375 26.953125 -8.203125 
L 18.75 -8.203125 
Q 19.140625 -2.734375 19.140625 8.984375 
L 19.140625 46.484375 
Q 14.0625 37.890625 8.59375 30.859375 
Q 6.640625 34.375 3.125 37.109375 
z
M 75.78125 78.515625 
Q 78.125 75 80.46875 71.671875 
Q 82.8125 68.359375 85.15625 65.625 
Q 82.03125 63.671875 78.515625 60.546875 
Q 76.171875 65.234375 69.53125 73.828125 
Q 72.265625 75.78125 75.78125 78.515625 
z
" id="SimHei-20248"/>
     </defs>
     <g transform="translate(284.445 263.104962)scale(0.1 -0.1)">
      <use xlink:href="#SimHei-31181"/>
      <use x="100" xlink:href="#SimHei-32676"/>
      <use x="200" xlink:href="#SimHei-26368"/>
      <use x="300" xlink:href="#SimHei-20248"/>
      <use x="400" xlink:href="#SimHei-20010"/>
      <use x="500" xlink:href="#SimHei-20307"/>
      <use x="600" xlink:href="#SimHei-30446"/>
      <use x="700" xlink:href="#SimHei-26631"/>
      <use x="800" xlink:href="#SimHei-20989"/>
      <use x="900" xlink:href="#SimHei-25968"/>
      <use x="1000" xlink:href="#SimHei-20540"/>
     </g>
    </g>
   </g>
  </g>
 </g>
 <defs>
  <clipPath id="paaa25cd34a">
   <rect height="266.112" width="357.12" x="46.325" y="7.242962"/>
  </clipPath>
 </defs>
</svg>
